<svg width="70" height="70" viewBox="0 0 70 70" fill="none" xmlns="http://www.w3.org/2000/svg">
<path d="M46.2487 11.1278C46.1821 10.2999 45.5826 9.63371 44.7737 9.51C40.2344 8.76772 37.4175 6.13167 36.1518 4.62808C35.8188 4.22839 35.3239 4 34.8005 4C34.2771 4 33.7822 4.22839 33.4492 4.62808C32.174 6.13167 29.3761 8.76772 24.8273 9.51C24.0279 9.63371 23.4189 10.2999 23.3618 11.1278C23.0953 14.6203 23.1144 26.354 34.5911 30.979C34.6578 31.0076 34.7339 31.0171 34.81 31.0171C34.8861 31.0171 34.9528 31.0076 35.0289 30.979C46.4962 26.3636 46.5152 14.6108 46.2487 11.1278ZM35.7236 26.5444C35.4381 26.7061 35.1241 26.7918 34.81 26.7918C34.496 26.7918 34.1724 26.7061 33.8964 26.5444C28.6244 23.442 27.254 18.1699 27.0256 14.2967C26.978 13.4688 27.4919 12.7075 28.2818 12.4411C30.2231 11.7844 32.0407 10.8042 33.6776 9.51951C34.3532 8.9866 35.2954 8.9866 35.971 9.51951C37.6078 10.8042 39.416 11.7939 41.3668 12.4411C42.1567 12.7075 42.6706 13.4688 42.623 14.2967C42.366 18.1699 40.9862 23.4325 35.7236 26.5444ZM37.6745 15.4387L33.925 19.1882L32.4309 17.6941C32.212 17.4752 31.8504 17.4752 31.622 17.6941C31.4031 17.913 31.4031 18.2746 31.622 18.503L33.5158 20.3968C33.63 20.511 33.7727 20.5681 33.9155 20.5681C34.0582 20.5681 34.2105 20.511 34.3247 20.3968L38.4738 16.2476C38.6927 16.0287 38.6927 15.6671 38.4738 15.4387C38.255 15.2103 37.8933 15.2103 37.6745 15.4387Z" fill="#E07702"/>
<path d="M4.75921 45.5541C5.02573 45.746 5.38753 45.7382 5.64565 45.5342C5.64565 45.5342 9.84472 42.2149 9.84472 42.2149L13.5541 42.0317L27.8079 51.2767C27.9313 50.7849 28.1121 50.3136 28.3445 49.8702L8.31599 36.8796C8.14851 36.771 8.03453 36.6034 7.99505 36.4078C7.95552 36.2121 7.99565 36.0133 8.1079 35.8482L9.10905 34.3759L14.1313 36.4193V38.2186C14.1333 38.3614 14.1746 38.5008 14.2513 38.6213C14.3316 38.7392 14.4418 38.8364 14.5735 38.8934C14.5735 38.8934 24.6014 43.2604 24.6014 43.2604C24.6254 42.9057 24.7347 42.5573 24.9253 42.2554C24.9253 42.2554 25.1464 41.8922 25.1464 41.8922L26.8202 39.1423L18.36 35.4581C17.4258 35.0351 16.4095 35.1621 15.6071 35.6439L15.6351 33.5131C15.6471 32.5979 15.1071 31.7837 14.2593 31.4387L12.5791 30.7551C11.7933 30.4355 10.8817 30.599 10.2562 31.1715L8.33821 32.9269C8.32392 32.9415 8.30976 32.956 8.29574 32.971C8.27027 32.9977 8.24921 33.0275 8.2265 33.0559C8.2265 33.0559 6.89064 35.0204 6.89064 35.0204C6.19183 36.0022 6.48986 37.4808 7.51499 38.1147C7.51497 38.1147 7.87818 38.3503 7.87818 38.3503L6.86884 38.7969C6.68495 38.8783 6.54239 39.0313 6.47423 39.2205L4.49679 44.7072C4.38532 45.0164 4.49242 45.3621 4.75921 45.5541Z" fill="#284F60"/>
<path d="M65.544 53.102C65.9504 53.102 66.28 52.7725 66.28 52.366C66.28 50.0411 65.1569 47.8931 63.3711 46.5355L64.0823 46.4629C64.4545 46.4248 64.7347 46.1152 64.7433 45.7486C64.7439 45.7242 64.7432 45.6995 64.7413 45.6747C64.7414 45.6745 64.5064 42.5943 64.5064 42.5942C64.5064 42.5942 64.3081 39.9954 64.3081 39.9954C62.8625 35.287 56.839 29.7412 56.3071 29.2386C56.1493 29.0812 55.9332 28.9984 55.7107 29.0186C55.2628 29.0594 54.8438 29.1316 54.4552 29.2249C52.2663 29.7865 50.9616 30.8646 50.8919 31.2085C50.8407 31.3511 50.8473 31.5084 50.8867 31.6532C50.8867 31.6532 51.8759 34.8592 51.8759 34.8592H47.7027C46.4852 34.8592 45.4946 35.8498 45.4946 37.0673C45.4946 38.2849 46.4852 39.2754 47.7027 39.2754H48.135C42.9989 42.1569 31.5911 48.557 31.5911 48.557C30.0304 49.4191 29.1084 51.071 29.0691 52.8397H23.8431C19.4469 42.7624 4.64474 45.7158 4.45312 56.7246C4.54035 66.8924 17.8155 70.5993 23.1505 61.9681L24.1612 62.2388L23.6684 63.0654C23.372 63.532 23.7458 64.1956 24.3007 64.1783C24.3006 64.1783 46.495 64.1783 46.495 64.1783C47.2326 64.1807 47.9351 63.8031 48.3379 63.185C55.7819 71.7744 69.3736 63.8193 65.4928 53.102H65.544ZM64.7607 51.63H57.4567L56.7327 48.1774L57.5704 47.3043C57.6911 47.1785 57.8531 47.0994 58.0266 47.0817L60.7468 46.8037C62.9095 47.4951 64.4744 49.4067 64.7607 51.63ZM54.3371 41.0762C54.8176 41.0892 55.1946 40.5774 55.0404 40.1231C54.9718 39.9 53.5174 35.1868 53.5005 35.1316C54.063 35.794 54.665 36.4507 55.2461 36.9869C56.6065 38.2422 59.8345 38.9124 62.4524 39.261C62.602 39.5784 62.7363 39.8938 62.8478 40.2044L62.9782 41.9143H61.3787C60.1612 41.9143 59.1706 42.9049 59.1706 44.1224V45.4851L57.8771 45.6173C57.304 45.6718 56.7816 45.9628 56.4058 46.3918L52.9505 44.5257C52.7411 44.4125 52.4899 44.4078 52.2762 44.5127L50.3316 45.4679L47.9954 44.0214C47.9954 44.0214 52.4499 41.1084 52.4499 41.1084C52.4499 41.1084 52.4992 41.0762 52.4992 41.0762H54.3371ZM59.8099 53.102C62.992 56.33 60.6685 61.9411 56.0818 61.9258C51.4954 61.9411 49.1717 56.3291 52.3539 53.102H53.2531L54.0766 57.029C54.2037 57.5587 54.4986 58.0563 54.9457 58.3737C56.4625 59.438 58.761 58.2911 58.4043 56.1517C58.4027 56.1419 58.4008 56.1322 58.3988 56.1226L57.7654 53.102H59.8099ZM56.4493 57.2735C56.1009 57.3581 55.6841 57.3024 55.5138 56.7098C55.5138 56.7098 54.264 50.7504 54.264 50.7504L55.4984 49.4639C55.8547 51.163 56.5953 54.6948 56.9547 56.4086C57.0558 56.9431 56.682 57.217 56.4493 57.2735ZM46.9667 37.0673C46.9667 36.6615 47.2969 36.3313 47.7027 36.3313H52.1467C52.2116 36.3313 52.2758 36.34 52.3379 36.3569L53.3397 39.6041H52.2799C52.1631 39.6043 52.0485 39.635 51.9437 39.6854L51.6716 38.3883C51.6121 38.082 51.3488 37.8502 51.0415 37.8112C51.0007 37.8057 50.9592 37.803 50.9181 37.8034C50.9181 37.8034 47.7027 37.8034 47.7027 37.8034C47.2969 37.8034 46.9667 37.4732 46.9667 37.0673ZM35.0366 53.0944L40.2429 50.1735C40.3471 50.3296 41.1435 51.0911 41.2859 51.2431C41.6475 51.5831 41.532 52.2363 41.0754 52.4312C39.9281 52.9637 35.5859 54.9792 34.5192 55.4743L34.6631 53.6775C34.6827 53.4326 34.8224 53.2146 35.0366 53.0944ZM11.8053 58.6133C11.8892 58.8345 12.0744 59.0019 12.303 59.0631L18.0133 60.5924C14.735 63.5818 9.31733 61.2121 9.33638 56.7244C9.40571 51.2017 16.7489 49.5615 19.1988 54.4189L15.4705 53.4204C15.1644 53.3386 14.8404 53.4615 14.6658 53.7258L11.8791 57.9466C11.7488 58.144 11.7213 58.3921 11.8053 58.6133ZM13.6703 57.9053L15.602 54.9796L18.0549 55.6365L16.1232 58.5622L13.6703 57.9053ZM28.9512 54.3118L28.738 56.9736L28.4958 56.9087L24.5827 55.8607C24.5375 55.3389 24.4507 54.8206 24.3271 54.3118H28.9512ZM24.9446 60.9247C23.6448 60.5766 19.0009 59.3328 17.6222 58.9636L19.5539 56.038L28.2736 58.3732L25.9801 59.4377C25.8459 59.5 25.7335 59.6013 25.6578 59.7284L24.9446 60.9247ZM47.0572 62.4453C46.915 62.6136 46.7153 62.7062 46.495 62.7062H25.5964L26.8059 60.6773L31.6876 58.4114L33.6557 60.0169C34.0602 60.3469 34.5529 60.5157 35.0498 60.5157C35.4127 60.5157 35.7779 60.4256 36.1122 60.2424L41.5459 57.2661C42.5999 56.6887 42.9981 55.3976 42.4524 54.3268L42.0581 53.5531C43.1495 52.7885 43.2857 51.1351 42.3268 50.2022C42.3268 50.2022 41.4717 49.3471 41.4717 49.3471C41.2324 49.1131 41.1896 48.726 41.3633 48.4436C41.4207 48.3509 41.4986 48.2717 41.5893 48.2106C41.5893 48.2106 42.208 47.8061 42.208 47.8061L46.5245 50.2835C46.6601 50.3614 46.8167 50.3941 46.9723 50.3767L50.1648 50.0218L51.8308 51.1602L51.8001 51.1922L47.1439 56.0451C46.6622 56.5472 46.4439 57.2564 46.56 57.9423L47.125 61.2821C47.1251 61.2822 47.2206 61.8472 47.2207 61.8474C47.2575 62.0647 47.1994 62.277 47.0572 62.4453Z" fill="#284F60"/>
<path d="M29.6212 37.1889L32.5206 36.9352C32.5206 36.9352 35.168 37.3594 35.5356 37.4315C35.9489 37.3437 36.4892 37.1794 37.1914 36.8887L39.2619 35.8906C39.9228 36.1335 42.2948 37.2667 42.7249 37.8402L44.1976 39.8039L35.8594 44.4818L26.2365 44.4818C25.6786 44.4998 25.3055 43.8286 25.6078 43.3631L28.7903 38.1347C29.0108 37.7723 29.6212 37.1889 29.6212 37.1889Z" fill="#284F60"/>
</svg>
