<svg width="70" height="70" viewBox="0 0 70 70" fill="none" xmlns="http://www.w3.org/2000/svg">
<g clip-path="url(#clip0_1976_2064)">
<path d="M66.9519 11.1278C66.8852 10.2999 66.2857 9.63371 65.4768 9.51C60.9375 8.76772 58.1206 6.13167 56.855 4.62808C56.5219 4.22839 56.027 4 55.5036 4C54.9802 4 54.4854 4.22839 54.1523 4.62808C52.8771 6.13167 50.0793 8.76772 45.5304 9.51C44.7311 9.63371 44.122 10.2999 44.0649 11.1278C43.7984 14.6203 43.8175 26.354 55.2943 30.979C55.3609 31.0076 55.437 31.0171 55.5131 31.0171C55.5893 31.0171 55.6559 31.0076 55.732 30.979C67.1993 26.3636 67.2183 14.6108 66.9519 11.1278ZM56.4267 26.5444C56.1412 26.7061 55.8272 26.7918 55.5131 26.7918C55.1991 26.7918 54.8755 26.7061 54.5996 26.5444C49.3275 23.442 47.9571 18.1699 47.7287 14.2967C47.6811 13.4688 48.195 12.7075 48.9849 12.4411C50.9262 11.7844 52.7439 10.8042 54.3807 9.51951C55.0564 8.9866 55.9985 8.9866 56.6741 9.51951C58.311 10.8042 60.1191 11.7939 62.0699 12.4411C62.8598 12.7075 63.3737 13.4688 63.3261 14.2967C63.0692 18.1699 61.6893 23.4325 56.4267 26.5444ZM58.3776 15.4387L54.6281 19.1882L53.134 17.6941C52.9152 17.4752 52.5535 17.4752 52.3251 17.6941C52.1063 17.913 52.1063 18.2746 52.3251 18.503L54.2189 20.3968C54.3331 20.511 54.4759 20.5681 54.6186 20.5681C54.7613 20.5681 54.9136 20.511 55.0278 20.3968L59.177 16.2476C59.3958 16.0287 59.3958 15.6671 59.177 15.4387C58.9581 15.2103 58.5965 15.2103 58.3776 15.4387Z" fill="#E07702"/>
<path d="M35.22 48.1016H20.39C18.8607 48.1016 17.6094 49.3528 17.6094 50.8822V54.5897C17.6094 56.119 18.8607 57.3703 20.39 57.3703H35.22C36.7493 57.3703 38.0006 56.119 38.0006 54.5897V50.8822C38.0006 49.3528 36.7493 48.1016 35.22 48.1016ZM36.1469 54.5897C36.1469 55.0995 35.7298 55.5166 35.22 55.5166H20.39C19.8802 55.5166 19.4631 55.0995 19.4631 54.5897V53.6628H36.1469V54.5897ZM36.1469 51.8091H19.4631V50.8822C19.4631 50.3724 19.8802 49.9553 20.39 49.9553H35.22C35.7298 49.9553 36.1469 50.3724 36.1469 50.8822V51.8091Z" fill="#284F60"/>
<path d="M12.0495 49.0234H8.34203C7.31823 49.0234 6.48828 49.8534 6.48828 50.8772V54.5847C6.48828 55.6085 7.31823 56.4384 8.34203 56.4384H12.0495C13.0733 56.4384 13.9033 55.6085 13.9033 54.5847V50.8772C13.9033 49.8534 13.0733 49.0234 12.0495 49.0234Z" fill="#284F60"/>
<path d="M47.2722 49.0234H43.5647C42.5409 49.0234 41.7109 49.8534 41.7109 50.8772V54.5847C41.7109 55.6085 42.5409 56.4384 43.5647 56.4384H47.2722C48.296 56.4384 49.1259 55.6085 49.1259 54.5847V50.8772C49.1259 49.8534 48.296 49.0234 47.2722 49.0234Z" fill="#284F60"/>
<path d="M53.7587 36.0494H51.6084C50.8391 36.0494 50.1717 36.5035 49.8844 37.2172L49.1985 38.9134L45.2871 27.1792C44.6661 25.2791 42.8958 24 40.8937 24H14.7188C12.7167 24 10.9464 25.2791 10.3254 27.1699L6.40471 38.9134L5.72809 37.2172C5.44076 36.5035 4.77341 36.0494 4.0041 36.0494H1.85375C0.834187 36.0494 0 36.8836 0 37.9031V40.6837C0 41.7033 0.834187 42.5375 1.85375 42.5375H4.75487L2.94746 45.2532C2.23377 46.3284 1.85375 47.5704 1.85375 48.8588V61.075C1.85375 63.1234 3.51286 64.7825 5.56125 64.7825V67.5631C5.56125 69.0925 6.81253 70.3437 8.34187 70.3437H13.9031C15.4325 70.3437 16.6837 69.0925 16.6837 67.5631V64.7825H38.9287V67.5631C38.9287 69.0925 40.18 70.3437 41.7094 70.3437H47.2706C48.8 70.3437 50.0512 69.0925 50.0512 67.5631V64.7825C52.0996 64.7825 53.7587 63.1234 53.7587 61.075V48.8588C53.7587 47.5704 53.3787 46.3284 52.665 45.2532L50.8576 42.5375H53.7587C54.7783 42.5375 55.6125 41.7033 55.6125 40.6837V37.9031C55.6125 36.8836 54.7783 36.0494 53.7587 36.0494ZM12.0864 27.7538C12.4572 26.6231 13.5231 25.8537 14.7188 25.8537H40.8937C42.0894 25.8537 43.1553 26.6231 43.526 27.7631L47.836 40.6837H46.0657L41.6538 28.3192C41.524 27.9578 41.1718 27.7075 40.7825 27.7075H14.83C14.4407 27.7075 14.0885 27.9578 13.9587 28.3192L9.54681 40.6837H7.77648L12.0864 27.7538ZM26.2213 37.245L31.7825 31.6838C32.144 31.3223 32.7372 31.3223 33.0987 31.6838C33.4602 32.0453 33.4602 32.6385 33.0987 33L27.5375 38.5612C27.3521 38.7373 27.1204 38.83 26.8794 38.83C26.6384 38.83 26.4067 38.7373 26.2213 38.5612C25.8598 38.1997 25.8598 37.6065 26.2213 37.245ZM21.9762 38.5612C21.7908 38.7373 21.5591 38.83 21.3181 38.83C21.0771 38.83 20.8454 38.7373 20.66 38.5612C20.2986 38.1997 20.2986 37.6065 20.66 37.245L26.2213 31.6838C26.5828 31.3223 27.176 31.3223 27.5375 31.6838C27.8989 32.0453 27.8989 32.6385 27.5375 33L21.9762 38.5612ZM50.0512 62.9287H5.56125C4.54169 62.9287 3.7075 62.0946 3.7075 61.075H51.905C51.905 62.0946 51.0708 62.9287 50.0512 62.9287ZM51.1264 46.2821C51.6362 47.0514 51.905 47.9412 51.905 48.8588V59.2212H3.7075V48.8588C3.7075 47.9412 3.97629 47.0514 4.48608 46.2821L6.98864 42.5375H48.6239L51.1264 46.2821Z" fill="#284F60"/>
<rect x="20" y="31" width="15" height="8" fill="#284F60"/>
</g>
<defs>
<clipPath id="clip0_1976_2064">
<rect width="70" height="70" fill="white"/>
</clipPath>
</defs>
</svg>
