<svg width="70" height="70" viewBox="0 0 70 70" fill="none" xmlns="http://www.w3.org/2000/svg">
<path d="M50.9961 61.0506C50.9961 61.8817 51.2425 62.6942 51.7042 63.3853C52.166 64.0764 52.8223 64.615 53.5902 64.9331C54.358 65.2512 55.203 65.3345 56.0182 65.1723C56.8333 65.0102 57.5821 64.61 58.1699 64.0223C58.7576 63.4346 59.1578 62.6858 59.32 61.8706C59.4821 61.0554 59.3989 60.2105 59.0809 59.4426C58.7628 58.6747 58.2242 58.0184 57.5331 57.5566C56.842 57.0949 56.0296 56.8484 55.1984 56.8484C54.0843 56.8497 53.0162 57.2929 52.2284 58.0806C51.4406 58.8684 50.9974 59.9365 50.9961 61.0506ZM8.12779 61.0506C8.12777 61.8817 8.3742 62.6942 8.83595 63.3853C9.29769 64.0764 9.95399 64.615 10.7219 64.9331C11.4897 65.2512 12.3347 65.3345 13.1499 65.1723C13.965 65.0102 14.7138 64.61 15.3016 64.0223C15.8893 63.4346 16.2895 62.6858 16.4517 61.8706C16.6138 61.0554 16.5306 60.2105 16.2126 59.4426C15.8945 58.6747 15.3559 58.0184 14.6648 57.5566C13.9737 57.0949 13.1613 56.8484 12.3301 56.8484C11.2161 56.8498 10.148 57.293 9.36029 58.0807C8.57255 58.8685 8.12941 59.9365 8.12807 61.0506H8.12779ZM0 32.1976V51.1195C0.000739638 51.5491 0.155737 51.9642 0.436776 52.2892C0.717815 52.6142 1.10621 52.8274 1.53125 52.8901V55.1512H1.06367C0.781669 55.1515 0.511309 55.2637 0.311902 55.4631C0.112495 55.6625 0.00032566 55.9328 0 56.2148L0 58.696C0.000289488 59.1259 0.171123 59.538 0.475 59.842C0.778877 60.146 1.19096 60.317 1.6208 60.3175H5.92963C5.82987 61.1878 5.90861 62.0692 6.16105 62.9081C6.41349 63.7469 6.83432 64.5254 7.39783 65.196C7.96134 65.8667 8.65568 66.4154 9.43843 66.8086C10.2212 67.2019 11.0759 67.4313 11.9503 67.4831C12.8248 67.5348 13.7006 67.4076 14.5242 67.1094C15.3479 66.8112 16.102 66.3481 16.7407 65.7486C17.3793 65.149 17.889 64.4255 18.2385 63.6223C18.5881 62.8191 18.7702 61.9531 18.7737 61.0771H22.5184C22.6149 61.67 22.919 62.2093 23.3763 62.5988C23.8335 62.9883 24.4143 63.2027 25.015 63.2038H44.0892C44.6899 63.2027 45.2706 62.9883 45.7279 62.5988C46.1852 62.2093 46.4892 61.67 46.5857 61.0771H48.7555C48.7555 62.7859 49.4344 64.4248 50.6427 65.6331C51.851 66.8414 53.4899 67.5203 55.1987 67.5203C56.9075 67.5203 58.5464 66.8414 59.7547 65.6331C60.963 64.4248 61.6418 62.7859 61.6418 61.0771H63.4293V61.4787C63.4298 61.8151 63.5637 62.1377 63.8017 62.3756C64.0396 62.6136 64.3621 62.7475 64.6986 62.7481H67.8096C68.3905 62.7474 68.9473 62.5163 69.358 62.1055C69.7686 61.6947 69.9995 61.1378 70 60.5569V47.612C70 45.9419 69.8333 43.4867 68.3918 41.4559L63.8527 35.0601C63.4066 34.4325 62.817 33.9207 62.1329 33.5672C61.4489 33.2138 60.6902 33.0291 59.9203 33.0284H51.8496C51.4078 33.0279 50.978 33.1719 50.6257 33.4386V27.7633C50.6278 27.5325 50.5841 27.3035 50.4971 27.0897C50.4102 26.8758 50.2818 26.6813 50.1193 26.5174C49.9568 26.3535 49.7635 26.2233 49.5504 26.1345C49.3373 26.0457 49.1088 26 48.878 26C48.6472 26 48.4186 26.0457 48.2056 26.1345C47.9925 26.2233 47.7991 26.3535 47.6366 26.5174C47.4741 26.6813 47.3457 26.8758 47.2588 27.0897C47.1719 27.3035 47.1282 27.5325 47.1302 27.7633V51.6322C47.1302 51.7564 47.0809 51.8754 46.9931 51.9633C46.9053 52.0511 46.7863 52.1006 46.6621 52.1007H44.599V32.1976C44.5982 31.3248 44.2511 30.488 43.634 29.8709C43.0168 29.2537 42.18 28.9067 41.3072 28.9058H3.29178C2.419 28.9067 1.58221 29.2537 0.965059 29.8709C0.347911 30.488 0.000832545 31.3248 0 32.1976ZM63.0111 55.3654L62.8439 55.053C62.2765 53.9905 61.431 53.1023 60.3977 52.4834C59.3644 51.8645 58.1823 51.5381 56.9778 51.5393H52.0229C51.6524 51.5389 51.2973 51.3916 51.0354 51.1297C50.7734 50.8678 50.6261 50.5126 50.6257 50.1422V35.0636C50.6261 34.7392 50.7551 34.4281 50.9846 34.1986C51.214 33.9692 51.5251 33.8401 51.8496 33.8397H59.9203C60.5607 33.8402 61.1917 33.9939 61.7608 34.2878C62.3298 34.5817 62.8203 35.0073 63.1914 35.5293L67.7305 41.9251C68.739 43.347 69.189 45.1002 69.189 47.612V52.1289C68.4863 52.2275 67.8428 52.5765 67.3769 53.1117C66.9109 53.6468 66.6538 54.3322 66.6529 55.0418V58.0435C65.8844 57.8973 65.1585 57.5808 64.5283 57.1174C63.8981 56.654 63.3797 56.0554 63.0111 55.3654ZM49.5656 61.0506C49.5656 59.9365 49.896 58.8475 50.5149 57.9212C51.1338 56.9949 52.0136 56.2729 53.0428 55.8466C54.0721 55.4202 55.2047 55.3087 56.2973 55.526C57.39 55.7434 58.3937 56.2798 59.1814 57.0676C59.9692 57.8554 60.5057 58.859 60.723 59.9517C60.9403 61.0443 60.8288 62.1769 60.4025 63.2062C59.9761 64.2354 59.2542 65.1152 58.3278 65.7341C57.4015 66.353 56.3125 66.6834 55.1984 66.6834C53.705 66.6817 52.2733 66.0877 51.2173 65.0317C50.1614 63.9757 49.5673 62.544 49.5656 61.0506ZM6.6973 61.0506C6.6973 59.9365 7.02766 58.8475 7.6466 57.9212C8.26555 56.9949 9.14527 56.2729 10.1745 55.8466C11.2038 55.4202 12.3364 55.3087 13.429 55.526C14.5217 55.7434 15.5254 56.2798 16.3131 57.0676C17.1009 57.8554 17.6374 58.859 17.8547 59.9517C18.072 61.0443 17.9605 62.1769 17.5342 63.2062C17.1078 64.2354 16.3859 65.1152 15.4595 65.7341C14.5332 66.353 13.4442 66.6834 12.3301 66.6834C10.8367 66.6817 9.40502 66.0877 8.34904 65.0317C7.29305 63.9757 6.69904 62.544 6.6973 61.0506ZM6.50316 58.3034C6.16989 57.4457 5.60392 56.698 4.86892 56.1444C4.13391 55.5908 3.25903 55.2533 2.34268 55.1698V52.9112H46.6621C47.0012 52.9108 47.3263 52.7759 47.5661 52.5362C47.8059 52.2964 47.9408 51.9713 47.9411 51.6322V27.7633C47.9396 27.6393 47.9627 27.5162 48.0092 27.4013C48.0556 27.2863 48.1243 27.1817 48.2115 27.0935C48.2986 27.0053 48.4024 26.9352 48.5168 26.8874C48.6312 26.8396 48.754 26.815 48.878 26.815C49.002 26.815 49.1247 26.8396 49.2391 26.8874C49.3536 26.9352 49.4573 27.0053 49.5445 27.0935C49.6316 27.1817 49.7004 27.2863 49.7468 27.4013C49.7932 27.5162 49.8163 27.6393 49.8148 27.7633V50.1419C49.8155 50.7273 50.0484 51.2885 50.4623 51.7025C50.8762 52.1164 51.4375 52.3493 52.0229 52.3499H56.9778C58.0355 52.3489 59.0736 52.6355 59.981 53.1791C60.8883 53.7226 61.6308 54.5026 62.129 55.4357L62.2963 55.7482C62.594 56.3029 62.9762 56.8078 63.4293 57.2448V60.2656H61.593C61.4017 58.7044 60.6458 57.2672 59.4679 56.2248C58.29 55.1825 56.7715 54.6071 55.1987 54.6071C53.6258 54.6071 52.1073 55.1825 50.9295 56.2248C49.7516 57.2672 48.9957 58.7044 48.8044 60.2656H46.5857C46.4892 59.6727 46.1852 59.1334 45.7279 58.7438C45.2707 58.3543 44.6899 58.1398 44.0892 58.1388H25.015C24.4143 58.1398 23.8334 58.3542 23.3761 58.7437C22.9188 59.1333 22.6148 59.6726 22.5183 60.2656H18.7247C18.5549 58.8791 17.9391 57.5854 16.97 56.5794C16.0009 55.5734 14.731 54.9097 13.3519 54.6882C11.9727 54.4668 10.5589 54.6997 9.32362 55.3517C8.08832 56.0038 7.09843 57.0397 6.50316 58.3034ZM1.93676 55.9619C3.99328 55.9619 5.75121 57.5479 5.96709 59.5059H1.6208C1.40605 59.5057 1.20016 59.4203 1.04829 59.2685C0.896426 59.1167 0.810996 58.9108 0.810742 58.696V56.2148C0.810815 56.1478 0.837486 56.0835 0.884904 56.0361C0.932321 55.9887 0.996613 55.962 1.06367 55.9619H1.93676ZM62.8996 49.1584H66.1672C66.4006 49.1581 66.6243 49.0653 66.7893 48.9004C66.9543 48.7354 67.0471 48.5117 67.0474 48.2783V45.5136C67.049 44.4796 66.7274 43.471 66.1274 42.6288L61.7373 36.4431C61.5065 36.1186 61.2016 35.8539 60.8478 35.6712C60.494 35.4884 60.1016 35.3929 59.7034 35.3926H53.2429C52.9644 35.3931 52.6974 35.504 52.5004 35.7009C52.3035 35.8979 52.1926 36.1649 52.1921 36.4434V46.1868C52.1926 46.4653 52.3035 46.7323 52.5004 46.9293C52.6974 47.1262 52.9644 47.2371 53.2429 47.2376H58.2619C58.6395 47.2366 59.0137 47.3105 59.3626 47.455C59.7115 47.5996 60.0283 47.8119 60.2946 48.0797C60.6361 48.4228 61.0422 48.6949 61.4895 48.88C61.9368 49.0652 62.4164 49.1598 62.9005 49.1584H62.8996ZM54.3732 48.8821H57.1076C57.2151 48.8821 57.3182 48.9248 57.3942 49.0008C57.4702 49.0768 57.5129 49.1799 57.5129 49.2875C57.5129 49.395 57.4702 49.4981 57.3942 49.5741C57.3182 49.6501 57.2151 49.6928 57.1076 49.6928H54.3732C54.2657 49.6928 54.1626 49.6501 54.0865 49.5741C54.0105 49.4981 53.9678 49.395 53.9678 49.2875C53.9678 49.1799 54.0105 49.0768 54.0865 49.0008C54.1626 48.9248 54.2657 48.8821 54.3732 48.8821Z" fill="#284F60"/>
<path d="M45.9519 7.12779C45.8852 6.29986 45.2857 5.63371 44.4768 5.51C39.9375 4.76772 37.1206 2.13167 35.855 0.628083C35.5219 0.228394 35.027 0 34.5036 0C33.9802 0 33.4854 0.228394 33.1523 0.628083C31.8771 2.13167 29.0793 4.76772 24.5304 5.51C23.7311 5.63371 23.122 6.29986 23.0649 7.12779C22.7984 10.6203 22.8175 22.354 34.2943 26.979C34.3609 27.0076 34.437 27.0171 34.5131 27.0171C34.5893 27.0171 34.6559 27.0076 34.732 26.979C46.1993 22.3636 46.2183 10.6108 45.9519 7.12779ZM35.4267 22.5444C35.1412 22.7061 34.8272 22.7918 34.5131 22.7918C34.1991 22.7918 33.8755 22.7061 33.5996 22.5444C28.3275 19.442 26.9571 14.1699 26.7287 10.2967C26.6811 9.46882 27.195 8.70751 27.9849 8.44105C29.9262 7.78442 31.7439 6.80423 33.3807 5.51951C34.0564 4.9866 34.9985 4.9866 35.6741 5.51951C37.311 6.80423 39.1191 7.79394 41.0699 8.44105C41.8598 8.70751 42.3737 9.46882 42.3261 10.2967C42.0692 14.1699 40.6893 19.4325 35.4267 22.5444ZM37.3776 11.4387L33.6281 15.1882L32.134 13.6941C31.9152 13.4752 31.5535 13.4752 31.3251 13.6941C31.1063 13.913 31.1063 14.2746 31.3251 14.503L33.2189 16.3968C33.3331 16.511 33.4759 16.5681 33.6186 16.5681C33.7613 16.5681 33.9136 16.511 34.0278 16.3968L38.177 12.2476C38.3958 12.0287 38.3958 11.6671 38.177 11.4387C37.9581 11.2103 37.5965 11.2103 37.3776 11.4387Z" fill="#E07702"/>
</svg>
