<svg width="70" height="70" viewBox="0 0 70 70" fill="none" xmlns="http://www.w3.org/2000/svg">
<path d="M10.9922 64.4058C9.7975 64.4058 8.82547 63.4338 8.82547 62.2378V13.675C8.82547 12.4788 9.7975 11.5069 10.9922 11.5069H20.1558V12.3043C20.1558 13.2893 20.9584 14.092 21.9434 14.092H39.7753C40.7603 14.092 41.563 13.2894 41.563 12.3043V11.5069H50.3643C51.5578 11.5069 52.5284 12.4789 52.5284 13.675V35.344C52.6301 35.2567 52.7305 35.1681 52.8308 35.0781C53.1773 34.7668 53.7038 34.7668 54.0503 35.0781C54.1506 35.1681 54.2509 35.2566 54.3525 35.344V13.675C54.3525 11.4729 52.5635 9.68144 50.3642 9.68144H41.5629V8.88406C41.5629 7.90036 40.7603 7.10031 39.7752 7.10031H35.9185C35.5511 7.10031 35.2528 6.85794 35.1759 6.49837C34.7485 4.47225 32.9336 3 30.8593 3C28.7903 3 26.9753 4.47098 26.5427 6.49964C26.4671 6.8592 26.1701 7.10031 25.8027 7.10031H21.9433C20.9584 7.10031 20.1556 7.90036 20.1556 8.88406V9.68144H10.9921C8.79148 9.68144 7 11.4729 7 13.675V62.2379C7 64.4398 8.79148 66.2314 10.9921 66.2314H47.0287C46.2768 65.6608 45.5707 65.0523 44.9101 64.4061H10.9922V64.4058ZM30.8593 5.99929C31.6371 5.99929 32.2704 6.63256 32.2704 7.41041C32.2704 8.18826 31.6372 8.82153 30.8593 8.82153C30.0814 8.82153 29.4481 8.18826 29.4481 7.41041C29.4481 6.63256 30.0815 5.99929 30.8593 5.99929Z" fill="#284F60"/>
<path d="M11.5098 42.2324C11.5098 42.7366 11.9189 43.1444 12.4218 43.1444H37.9084C37.9332 42.545 37.9697 41.9366 38.0192 41.3203H12.4218C11.9189 41.3203 11.5098 41.7282 11.5098 42.2324Z" fill="#284F60"/>
<path d="M12.4218 47.4569H37.9319C37.8968 46.8602 37.8746 46.2516 37.868 45.6328H12.4218C11.9189 45.6328 11.5098 46.0406 11.5098 46.5449C11.5098 47.0491 11.9189 47.4569 12.4218 47.4569Z" fill="#284F60"/>
<path d="M12.4218 51.7655H38.4466C38.3345 51.17 38.2393 50.5616 38.1599 49.9414H12.4218C11.9189 49.9414 11.5098 50.3493 11.5098 50.8534C11.5098 51.3577 11.9189 51.7655 12.4218 51.7655Z" fill="#284F60"/>
<path d="M39.0264 54.2578H12.4218C11.9189 54.2578 11.5098 54.6656 11.5098 55.1698C11.5098 55.6741 11.9189 56.0819 12.4218 56.0819H39.6114C39.3951 55.4891 39.201 54.8819 39.0264 54.2578Z" fill="#284F60"/>
<path d="M12.4221 58.5703C11.9182 58.5703 11.5098 58.9787 11.5098 59.4826C11.5098 59.9865 11.9182 60.3949 12.4221 60.3949H29.8472C30.3511 60.3949 30.7595 59.9865 30.7595 59.4826C30.7595 58.9787 30.3511 58.5703 29.8472 58.5703H12.4221Z" fill="#284F60"/>
<path d="M48.9319 19.7539H35.9943C35.4904 19.7539 35.082 20.1623 35.082 20.6662C35.082 21.1701 35.4904 21.5785 35.9943 21.5785H48.9321C49.436 21.5785 49.8444 21.1701 49.8444 20.6662C49.8444 20.1623 49.4358 19.7539 48.9319 19.7539Z" fill="#284F60"/>
<path d="M48.9319 24.0664H35.9943C35.4904 24.0664 35.082 24.4748 35.082 24.9787C35.082 25.4826 35.4904 25.891 35.9943 25.891H48.9321C49.436 25.891 49.8444 25.4826 49.8444 24.9787C49.8444 24.4748 49.4358 24.0664 48.9319 24.0664Z" fill="#284F60"/>
<path d="M48.9319 28.3789H35.9943C35.4904 28.3789 35.082 28.7873 35.082 29.2912C35.082 29.7951 35.4904 30.2035 35.9943 30.2035H48.9321C49.436 30.2035 49.8444 29.7951 49.8444 29.2912C49.8444 28.7873 49.4358 28.3789 48.9319 28.3789Z" fill="#284F60"/>
<path d="M22.0203 35.9683C22.1974 36.1469 22.432 36.2367 22.6652 36.2367C22.8983 36.2367 23.1316 36.1468 23.3101 35.9683L31.4249 27.855C34.0177 25.2622 34.0177 21.0433 31.4249 18.4505C30.1741 17.197 28.5037 16.5078 26.7225 16.5078C25.232 16.5078 23.8196 16.9899 22.6652 17.8824C21.5108 16.9899 20.0984 16.5078 18.6079 16.5078C16.8268 16.5078 15.1564 17.197 13.9056 18.4505C11.3127 21.0433 11.3127 25.2622 13.9056 27.855L22.0203 35.9683ZM16.8372 24.5247H19.1824L20.6247 21.2126C20.772 20.8738 21.112 20.6576 21.4795 20.6653C21.8494 20.6732 22.1792 20.9038 22.312 21.249L24.153 26.0177L24.5257 25.0953C24.6652 24.75 25 24.5245 25.3725 24.5245H28.2898C28.7939 24.5245 29.2018 24.9323 29.2018 25.4366C29.2018 25.9408 28.7939 26.3486 28.2898 26.3486H25.9875L24.9804 28.8437C24.8408 29.189 24.506 29.4145 24.1348 29.4145H24.1283C23.753 29.4118 23.4182 29.18 23.284 28.8308L21.4103 23.9786L20.6169 25.8002C20.4723 26.1338 20.1439 26.3487 19.7804 26.3487H16.8372C16.3329 26.3487 15.9252 25.941 15.9252 25.4367C15.9252 24.9324 16.333 24.5247 16.8372 24.5247Z" fill="#284F60"/>
<path d="M49.8456 33.6037C49.8456 33.0998 49.4372 32.6914 48.9333 32.6914H29.7834C29.2795 32.6914 28.8711 33.0998 28.8711 33.6037C28.8711 34.1076 29.2795 34.516 29.7834 34.516H48.9333C49.4372 34.516 49.8456 34.1076 49.8456 33.6037Z" fill="#284F60"/>
<path d="M63.0282 44.7998C62.9664 44.0317 62.4102 43.4138 61.6599 43.299C57.4488 42.6104 54.8357 40.165 53.6616 38.7702C53.3526 38.3994 52.8935 38.1875 52.408 38.1875C51.9224 38.1875 51.4633 38.3994 51.1544 38.7702C49.9714 40.165 47.3759 42.6104 43.1561 43.299C42.4145 43.4138 41.8495 44.0317 41.7965 44.7998C41.5494 48.0397 41.567 58.9248 52.2137 63.2153C52.2755 63.2418 52.3462 63.2506 52.4168 63.2506C52.4874 63.2506 52.5492 63.2418 52.6198 63.2153C63.2577 58.9336 63.2754 48.0309 63.0282 44.7998ZM53.2643 59.1014C52.9994 59.2514 52.7081 59.3309 52.4168 59.3309C52.1255 59.3309 51.8253 59.2514 51.5693 59.1014C46.6785 56.2234 45.4072 51.3326 45.1954 47.7395C45.1512 46.9715 45.628 46.2652 46.3607 46.0181C48.1616 45.4089 49.8478 44.4996 51.3662 43.3078C51.993 42.8134 52.867 42.8134 53.4938 43.3078C55.0123 44.4996 56.6896 45.4177 58.4994 46.0181C59.2321 46.2652 59.7088 46.9715 59.6647 47.7395C59.4263 51.3326 58.1463 56.2146 53.2643 59.1014ZM55.0741 48.7989L51.5958 52.2772L50.2098 50.8912C50.0067 50.6881 49.6712 50.6881 49.4594 50.8912C49.2563 51.0942 49.2563 51.4297 49.4594 51.6416L51.2162 53.3984C51.3221 53.5043 51.4545 53.5573 51.5869 53.5573C51.7194 53.5573 51.8606 53.5043 51.9666 53.3984L55.8156 49.5493C56.0187 49.3463 56.0187 49.0108 55.8156 48.7989C55.6126 48.587 55.2771 48.587 55.0741 48.7989Z" fill="#E07702"/>
</svg>
