<svg width="70" height="70" viewBox="0 0 70 70" fill="none" xmlns="http://www.w3.org/2000/svg">
<path d="M35.1952 47.4922H20.3762C18.848 47.4922 17.5977 48.7425 17.5977 50.2707V53.9755C17.5977 55.5037 18.848 56.754 20.3762 56.754H35.1952C36.7234 56.754 37.9737 55.5037 37.9737 53.9755V50.2707C37.9737 48.7425 36.7234 47.4922 35.1952 47.4922ZM36.1214 53.9755C36.1214 54.4849 35.7046 54.9017 35.1952 54.9017H20.3762C19.8668 54.9017 19.45 54.4849 19.45 53.9755V53.0493H36.1214V53.9755ZM36.1214 51.1969H19.45V50.2707C19.45 49.7613 19.8668 49.3446 20.3762 49.3446H35.1952C35.7046 49.3446 36.1214 49.7613 36.1214 50.2707V51.1969Z" fill="#284F60"/>
<path d="M12.0415 48.4141H8.33675C7.31371 48.4141 6.48438 49.2434 6.48438 50.2664V53.9712C6.48438 54.9942 7.31371 55.8235 8.33675 55.8235H12.0415C13.0645 55.8235 13.8939 54.9942 13.8939 53.9712V50.2664C13.8939 49.2434 13.0645 48.4141 12.0415 48.4141Z" fill="#284F60"/>
<path d="M47.2368 48.4141H43.5321C42.509 48.4141 41.6797 49.2434 41.6797 50.2664V53.9712C41.6797 54.9942 42.509 55.8235 43.5321 55.8235H47.2368C48.2598 55.8235 49.0892 54.9942 49.0892 53.9712V50.2664C49.0892 49.2434 48.2598 48.4141 47.2368 48.4141Z" fill="#284F60"/>
<path d="M53.7188 35.4499H51.57C50.8013 35.4499 50.1344 35.9037 49.8473 36.6169L49.1712 38.3118L45.2534 26.5863C44.6329 24.6876 42.8639 23.4095 40.8633 23.4095H38.696L37.5476 18.8063C37.1308 17.1577 35.6581 16 33.954 16H21.6172C19.913 16 18.4403 17.1577 18.0236 18.8063L16.8751 23.4095H14.7078C12.7073 23.4095 10.9382 24.6876 10.3177 26.577L6.39994 38.3118L5.72383 36.6169C5.43671 35.9037 4.76985 35.4499 4.00112 35.4499H1.85237C0.833567 35.4499 0 36.2835 0 37.3023V40.0808C0 41.0996 0.833567 41.9332 1.85237 41.9332H4.76059L2.94527 44.6469C2.23211 45.7213 1.85237 46.9624 1.85237 48.2498V60.4569C1.85237 62.5038 3.51024 64.1616 5.55711 64.1616V66.9402C5.55711 68.4684 6.80746 69.7188 8.33567 69.7188H13.8928C15.421 69.7188 16.6713 68.4684 16.6713 66.9402V64.1616H38.8998V66.9402C38.8998 68.4684 40.1501 69.7188 41.6783 69.7188H47.2355C48.7637 69.7188 50.014 68.4684 50.014 66.9402V64.1616C52.0609 64.1616 53.7188 62.5038 53.7188 60.4569V48.2498C53.7188 46.9624 53.339 45.7213 52.6259 44.6469L50.8105 41.9332H53.7188C54.7376 41.9332 55.5711 41.0996 55.5711 40.0808V37.3023C55.5711 36.2835 54.7376 35.4499 53.7188 35.4499ZM12.0775 27.1605C12.4479 26.0306 13.513 25.2619 14.7078 25.2619H40.8633C42.0581 25.2619 43.1232 26.0306 43.4937 27.1698L47.8004 40.0808H46.0314L41.6228 27.7255C41.4931 27.3643 41.1412 27.1142 40.7522 27.1142H14.819C14.43 27.1142 14.078 27.3643 13.9484 27.7255L9.53971 40.0808H7.7707L12.0775 27.1605ZM26.2018 36.6447L31.7589 31.0876C32.1201 30.7263 32.7129 30.7263 33.0741 31.0876C33.4353 31.4488 33.4353 32.0415 33.0741 32.4027L27.517 37.9599C27.3317 38.1358 27.1002 38.2284 26.8594 38.2284C26.6186 38.2284 26.387 38.1358 26.2018 37.9599C25.8406 37.5986 25.8406 37.0059 26.2018 36.6447ZM21.9599 37.9599C21.7746 38.1358 21.5431 38.2284 21.3023 38.2284C21.0615 38.2284 20.8299 38.1358 20.6447 37.9599C20.2835 37.5986 20.2835 37.0059 20.6447 36.6447L26.2018 31.0876C26.563 30.7263 27.1558 30.7263 27.517 31.0876C27.8782 31.4488 27.8782 32.0415 27.517 32.4027L21.9599 37.9599ZM50.014 62.3093H5.55711C4.53831 62.3093 3.70474 61.4757 3.70474 60.4569H51.8664C51.8664 61.4757 51.0328 62.3093 50.014 62.3093ZM51.0884 45.675C51.5978 46.4437 51.8664 47.3329 51.8664 48.2498V58.6045H3.70474V48.2498C3.70474 47.3329 3.97334 46.4437 4.48274 45.675L6.98344 41.9332H48.5877L51.0884 45.675Z" fill="#284F60"/>
<path d="M64.9519 9.12779C64.8852 8.29986 64.2857 7.63371 63.4768 7.51C58.9375 6.76772 56.1206 4.13167 54.855 2.62808C54.5219 2.22839 54.027 2 53.5036 2C52.9802 2 52.4854 2.22839 52.1523 2.62808C50.8771 4.13167 48.0793 6.76772 43.5304 7.51C42.7311 7.63371 42.122 8.29986 42.0649 9.12779C41.7984 12.6203 41.8175 24.354 53.2943 28.979C53.3609 29.0076 53.437 29.0171 53.5131 29.0171C53.5893 29.0171 53.6559 29.0076 53.732 28.979C65.1993 24.3636 65.2183 12.6108 64.9519 9.12779ZM54.4267 24.5444C54.1412 24.7061 53.8272 24.7918 53.5131 24.7918C53.1991 24.7918 52.8755 24.7061 52.5996 24.5444C47.3275 21.442 45.9571 16.1699 45.7287 12.2967C45.6811 11.4688 46.195 10.7075 46.9849 10.4411C48.9262 9.78442 50.7439 8.80423 52.3807 7.51951C53.0564 6.9866 53.9985 6.9866 54.6741 7.51951C56.311 8.80423 58.1191 9.79394 60.0699 10.4411C60.8598 10.7075 61.3737 11.4688 61.3261 12.2967C61.0692 16.1699 59.6893 21.4325 54.4267 24.5444ZM56.3776 13.4387L52.6281 17.1882L51.134 15.6941C50.9152 15.4752 50.5535 15.4752 50.3251 15.6941C50.1063 15.913 50.1063 16.2746 50.3251 16.503L52.2189 18.3968C52.3331 18.511 52.4759 18.5681 52.6186 18.5681C52.7613 18.5681 52.9136 18.511 53.0278 18.3968L57.177 14.2476C57.3958 14.0287 57.3958 13.6671 57.177 13.4387C56.9581 13.2103 56.5965 13.2103 56.3776 13.4387Z" fill="#E07702"/>
</svg>
