<svg width="70" height="70" viewBox="0 0 70 70" fill="none" xmlns="http://www.w3.org/2000/svg">
<g clip-path="url(#clip0_1976_2039)">
<path d="M60.4221 49.9381C60.4232 49.8992 60.4251 49.8605 60.4251 49.8213V47.4953C60.6448 47.3221 60.8544 47.1368 61.0532 46.9405H62.9646C65.5378 46.9405 67.6312 44.8478 67.6312 42.2755V36.7742C67.6312 30.2578 62.3278 24.9563 55.8091 24.9563C49.2903 24.9563 43.9871 30.2579 43.9871 36.7742V42.2755C43.9871 44.8478 46.0805 46.9405 48.6537 46.9405H50.5653C50.7641 47.1368 50.9736 47.3221 51.1932 47.4953V49.8213C51.1932 49.8603 51.1951 49.8988 51.1962 49.9375C46.7539 50.0509 42.9269 53.1819 41.8948 57.4452C41.6406 57.4151 41.3824 57.3979 41.1202 57.3979H39.4665V55.3544C41.8935 53.8533 43.5144 51.1688 43.5144 48.1123C43.5144 43.4191 39.6948 39.6008 35 39.6008C30.3052 39.6008 26.4856 43.4191 26.4856 48.1123C26.4856 51.1688 28.1065 53.8533 30.5335 55.3544V57.3979H28.8798C28.6174 57.3979 28.3593 57.4151 28.1049 57.4452C27.0728 53.1823 23.2461 50.0509 18.8038 49.9375C18.8047 49.8988 18.8068 49.8602 18.8068 49.8213V47.4953C19.8836 46.6462 20.7218 45.5079 21.2034 44.199C24.0081 42.6128 25.7323 39.6634 25.7219 36.4253C25.7219 30.0693 20.549 24.8984 14.1909 24.8984C7.83267 24.8984 2.65985 30.0695 2.65985 36.4253C2.64938 39.6634 4.37365 42.6126 7.17814 44.1988C7.65977 45.5079 8.49797 46.6462 9.57474 47.4953V49.8213C9.57474 49.8605 9.57669 49.8992 9.57773 49.9381C4.27434 50.0709 0 54.4217 0 59.7547V66.4152C0 66.91 0.401303 67.3111 0.896239 67.3111C1.39118 67.3111 1.79248 66.91 1.79248 66.4152V59.7547C1.78724 55.2684 5.50233 51.6343 9.98712 51.7238C10.7136 53.3214 12.3239 54.4358 14.1909 54.4358C16.0578 54.4358 17.6681 53.3214 18.3946 51.7238C22.1762 51.6483 25.5147 54.2759 26.3709 57.8964C23.9856 58.8843 22.3031 61.2353 22.3031 63.9725V69.103C22.3031 69.5978 22.7044 69.9989 23.1993 69.9989C23.6943 69.9989 24.0956 69.5978 24.0956 69.103V63.9725C24.0956 61.5437 25.9165 59.5335 28.265 59.2307C28.7159 62.6033 31.5634 65.2116 35.0002 65.2116C38.4369 65.2116 41.2844 62.6033 41.7353 59.2307C44.0838 59.5335 45.9047 61.5439 45.9047 63.9725V69.103C45.9047 69.5978 46.3061 69.9989 46.801 69.9989C47.2959 69.9989 47.6972 69.5978 47.6972 69.103V63.9725C47.6972 61.2352 46.0145 58.8842 43.6294 57.8964C44.4855 54.2759 47.8241 51.6483 51.6057 51.7238C52.3322 53.3214 53.9425 54.4358 55.8094 54.4358C57.6763 54.4358 59.2867 53.3214 60.0132 51.7238C64.498 51.6344 68.2129 55.2684 68.2078 59.7547V66.4152C68.2078 66.91 68.6091 67.3111 69.1041 67.3111C69.599 67.3111 70.0003 66.91 70.0003 66.4152V59.7547C70 54.4217 65.7257 50.0709 60.4221 49.9381ZM17.0143 49.8214C17.0143 51.3776 15.7478 52.6439 14.1909 52.6439C12.634 52.6439 11.3674 51.3777 11.3674 49.8214V48.5429C12.2391 48.9001 13.192 49.0985 14.1909 49.0985C15.1897 49.0985 16.1426 48.9001 17.0143 48.5429V49.8214ZM14.1909 47.3067C11.0609 47.3067 8.51457 44.7612 8.51457 41.6325V36.9838L12.2708 38.2868C12.8215 38.4947 13.4611 38.0519 13.4606 37.4637L13.5489 34.069L19.8673 36.3533V41.6323C19.8671 44.7611 17.3207 47.3067 14.1909 47.3067ZM28.2781 48.1123C28.2781 45.5351 29.7376 43.2938 31.8729 42.1669C32.8904 46.7316 36.5749 50.2156 41.1729 50.7696C40.1405 53.1568 37.7626 54.832 35 54.832C31.2934 54.832 28.2781 51.8176 28.2781 48.1123ZM35 63.4197C32.5838 63.4197 30.503 61.5587 30.0752 59.1899H31.4296C31.9245 59.1899 32.3258 58.7888 32.3258 58.294V56.1913C33.1674 56.4704 34.0658 56.6237 34.9999 56.6237C35.9339 56.6237 36.8323 56.4704 37.6739 56.1913V58.294C37.6739 58.7888 38.0752 59.1899 38.5701 59.1899H39.9245C39.4971 61.5587 37.4162 63.4197 35 63.4197ZM58.6326 49.8214C58.6326 51.3776 57.366 52.6439 55.8091 52.6439C54.2522 52.6439 52.9857 51.3777 52.9857 49.8214V48.5429C53.8574 48.9001 54.8103 49.0985 55.8091 49.0985C56.808 49.0985 57.7609 48.9001 58.6326 48.5429V49.8214ZM55.8091 47.3067C52.6792 47.3067 50.1329 44.7612 50.1329 41.6325V36.3219H61.4856V41.6325C61.4856 44.7611 58.9391 47.3067 55.8091 47.3067Z" fill="#284F60"/>
<path d="M45.9519 11.1278C45.8852 10.2999 45.2857 9.63371 44.4768 9.51C39.9375 8.76772 37.1206 6.13167 35.855 4.62808C35.5219 4.22839 35.027 4 34.5036 4C33.9802 4 33.4854 4.22839 33.1523 4.62808C31.8771 6.13167 29.0793 8.76772 24.5304 9.51C23.7311 9.63371 23.122 10.2999 23.0649 11.1278C22.7984 14.6203 22.8175 26.354 34.2943 30.979C34.3609 31.0076 34.437 31.0171 34.5131 31.0171C34.5893 31.0171 34.6559 31.0076 34.732 30.979C46.1993 26.3636 46.2183 14.6108 45.9519 11.1278ZM35.4267 26.5444C35.1412 26.7061 34.8272 26.7918 34.5131 26.7918C34.1991 26.7918 33.8755 26.7061 33.5996 26.5444C28.3275 23.442 26.9571 18.1699 26.7287 14.2967C26.6811 13.4688 27.195 12.7075 27.9849 12.4411C29.9262 11.7844 31.7439 10.8042 33.3807 9.51951C34.0564 8.9866 34.9985 8.9866 35.6741 9.51951C37.311 10.8042 39.1191 11.7939 41.0699 12.4411C41.8598 12.7075 42.3737 13.4688 42.3261 14.2967C42.0692 18.1699 40.6893 23.4325 35.4267 26.5444ZM37.3776 15.4387L33.6281 19.1882L32.134 17.6941C31.9152 17.4752 31.5535 17.4752 31.3251 17.6941C31.1063 17.913 31.1063 18.2746 31.3251 18.503L33.2189 20.3968C33.3331 20.511 33.4759 20.5681 33.6186 20.5681C33.7613 20.5681 33.9136 20.511 34.0278 20.3968L38.177 16.2476C38.3958 16.0287 38.3958 15.6671 38.177 15.4387C37.9581 15.2103 37.5965 15.2103 37.3776 15.4387Z" fill="#E07702"/>
</g>
<defs>
<clipPath id="clip0_1976_2039">
<rect width="70" height="70" fill="white"/>
</clipPath>
</defs>
</svg>
