<svg width="70" height="70" viewBox="0 0 70 70" fill="none" xmlns="http://www.w3.org/2000/svg">
<path d="M27.2887 36.6406C26.9387 36.6406 26.6523 36.927 26.6523 37.277V55.4346C26.6523 55.7846 26.9387 56.0709 27.2887 56.0709C27.6387 56.0709 27.9251 55.7846 27.9251 55.4346V37.277C27.9251 36.927 27.6387 36.6406 27.2887 36.6406Z" fill="#284F60"/>
<path d="M18.5934 36.6406C18.2434 36.6406 17.957 36.927 17.957 37.277V55.4346C17.957 55.7846 18.2434 56.0709 18.5934 56.0709C18.9434 56.0709 19.2298 55.7846 19.2298 55.4346V37.277C19.2298 36.927 18.9434 36.6406 18.5934 36.6406Z" fill="#284F60"/>
<path d="M9.88636 36.6406C9.53636 36.6406 9.25 36.927 9.25 37.277V55.4346C9.25 55.7846 9.53636 56.0709 9.88636 56.0709C10.2364 56.0709 10.5227 55.7846 10.5227 55.4346V37.277C10.5227 36.927 10.2364 36.6406 9.88636 36.6406Z" fill="#284F60"/>
<path d="M63.9769 40.2857H59.045V36.7433C59.045 35.269 57.8465 34.0705 56.3723 34.0705H43.4965C42.0223 34.0705 40.8238 35.269 40.8238 36.7433V40.2857H35.892C35.7117 40.2857 35.5314 40.3069 35.3511 40.3281V31.0796C35.3511 31.0796 35.3511 31.0796 35.3511 31.069V26.763C35.3511 23.5175 32.7102 20.8872 29.4753 20.8872H26.8556V7.53419H27.2375C28.8072 7.53419 30.0905 6.25085 30.0905 4.68115C30.0905 3.11146 28.8072 1.82812 27.2375 1.82812H9.93897C8.36927 1.82812 7.08594 3.11146 7.08594 4.68115C7.08594 6.25085 8.36927 7.53419 9.93897 7.53419H10.3208V20.8766H7.7117C4.46624 20.8766 1.83594 23.5175 1.83594 26.7524V31.069V31.0796V56.3963C1.83594 59.4827 4.23291 62.0175 7.25563 62.2508C6.71473 62.8766 6.38594 63.6933 6.38594 64.5842C6.38594 66.5569 7.99806 68.169 9.97079 68.169C11.9435 68.169 13.5556 66.5569 13.5556 64.5842C13.5556 63.7039 13.2375 62.8978 12.7072 62.2721H24.4905C23.9602 62.8978 23.642 63.7039 23.642 64.5842C23.642 66.5569 25.2541 68.169 27.2268 68.169C29.1996 68.169 30.8117 66.5569 30.8117 64.5842C30.8117 63.6933 30.4829 62.8766 29.942 62.2508C30.5572 62.2084 31.1511 62.0599 31.7132 61.8266V63.9796C31.7132 66.2918 33.5905 68.169 35.9026 68.169H39.0526H42.6375H57.2208H60.8056H63.9662C66.2784 68.169 68.1556 66.2918 68.1556 63.9796V44.4751C68.1662 42.163 66.289 40.2857 63.9769 40.2857ZM38.5223 51.1463H39.0526H42.6268H43.1572C43.3693 51.1463 43.539 51.316 43.539 51.5281V56.9266C43.539 57.1387 43.3693 57.3084 43.1572 57.3084H42.6162H39.0314H38.5011C38.289 57.3084 38.1193 57.1387 38.1193 56.9266V51.5281C38.1405 51.316 38.3102 51.1463 38.5223 51.1463ZM43.2844 58.5705C44.1435 58.5175 44.8329 57.8069 44.8329 56.9372V51.5387C44.8329 50.6584 44.1435 49.9478 43.2844 49.9054V41.569H56.595V49.9054C55.7359 49.9584 55.0465 50.669 55.0465 51.5387V56.9372C55.0465 57.8069 55.7359 58.5175 56.595 58.5705V66.9069H43.2844V58.5705ZM61.3572 57.3084H60.8268H57.242H56.7117C56.4996 57.3084 56.3299 57.1387 56.3299 56.9266V51.5281C56.3299 51.316 56.4996 51.1463 56.7117 51.1463H57.242H60.8162H61.3465C61.5587 51.1463 61.7284 51.316 61.7284 51.5281V56.9266C61.7284 57.1387 61.5587 57.3084 61.3572 57.3084ZM42.0965 36.7433C42.0965 35.969 42.7223 35.3433 43.4965 35.3433H56.3829C57.1572 35.3433 57.7829 35.969 57.7829 36.7433V40.2857H42.0965V36.7433ZM25.5829 20.8766H23.8011V7.53419H25.5829V20.8766ZM14.6481 20.8766V7.53419H22.5284V20.8766H14.6481ZM11.5935 7.53419H13.3753V20.8766H11.5935V7.53419ZM29.4753 60.9993H7.7117C5.17685 60.9993 3.10866 58.9311 3.10866 56.3963V31.7054H34.089V40.6993C32.689 41.3781 31.7132 42.8099 31.7132 44.4751V60.416C31.0238 60.7872 30.2602 60.9993 29.4753 60.9993ZM32.9753 63.9796V44.4751C32.9753 42.863 34.2905 41.5478 35.9026 41.5478H38.4268V49.8842C37.5678 49.9372 36.8784 50.6478 36.8784 51.5175V56.916C36.8784 57.7857 37.5678 58.4963 38.4268 58.5493V66.8857H35.9026C34.2905 66.9069 32.9753 65.5918 32.9753 63.9796ZM66.9041 63.9796C66.9041 65.5918 65.589 66.9069 63.9769 66.9069H61.4526V58.5705C62.3117 58.5175 63.0011 57.8069 63.0011 56.9372V51.5387C63.0011 50.669 62.3117 49.9584 61.4526 49.9054V41.569H63.9769C65.589 41.569 66.9041 42.8842 66.9041 44.4963V63.9796Z" fill="#284F60"/>
<path d="M61.3768 9.78769C61.3025 8.86496 60.6344 8.12254 59.7328 7.98466C54.6738 7.15739 51.5344 4.21951 50.1238 2.54375C49.7525 2.0983 49.201 1.84375 48.6177 1.84375C48.0344 1.84375 47.4828 2.0983 47.1116 2.54375C45.6904 4.21951 42.5722 7.15739 37.5025 7.98466C36.6116 8.12254 35.9328 8.86496 35.8692 9.78769C35.5722 13.6801 35.5935 26.7574 48.3844 31.9119C48.4586 31.9437 48.5435 31.9544 48.6283 31.9544C48.7131 31.9544 48.7874 31.9437 48.8722 31.9119C61.6525 26.768 61.6738 13.6695 61.3768 9.78769ZM49.6465 26.9695C49.3283 27.1498 48.9783 27.2453 48.6283 27.2453C48.2783 27.2453 47.9177 27.1498 47.6101 26.9695C41.7344 23.5119 40.2071 17.6362 39.9525 13.3195C39.8995 12.3968 40.4722 11.5483 41.3525 11.2513C43.5162 10.5195 45.5419 9.42708 47.3662 7.99527C48.1192 7.40133 49.1692 7.40133 49.9222 7.99527C51.7465 9.42708 53.7616 10.5301 55.9359 11.2513C56.8162 11.5483 57.3889 12.3968 57.3359 13.3195C57.0495 17.6362 55.5116 23.5013 49.6465 26.9695ZM51.8207 14.5922L47.6419 18.771L45.9768 17.1059C45.7328 16.8619 45.3298 16.8619 45.0753 17.1059C44.8313 17.3498 44.8313 17.7528 45.0753 18.0074L47.1859 20.118C47.3132 20.2453 47.4722 20.3089 47.6313 20.3089C47.7904 20.3089 47.9601 20.2453 48.0874 20.118L52.7116 15.4938C52.9556 15.2498 52.9556 14.8468 52.7116 14.5922C52.4677 14.3377 52.0647 14.3377 51.8207 14.5922Z" fill="#E07702"/>
<path d="M52.7256 15.4751L48.1013 20.0993C47.9741 20.2266 47.815 20.2902 47.6453 20.2902C47.4756 20.2902 47.3165 20.2266 47.1998 20.0993L45.0892 17.9887C44.8453 17.7448 44.8453 17.3418 45.0892 17.0872C45.3331 16.8433 45.7362 16.8433 45.9907 17.0872L47.6559 18.7524L51.8347 14.5736C52.0786 14.3296 52.4816 14.3296 52.7256 14.5736C52.9695 14.8175 52.9695 15.2312 52.7256 15.4751Z" fill="#284F60"/>
</svg>
