<svg width="450" height="343" viewBox="0 0 450 343" fill="none" xmlns="http://www.w3.org/2000/svg">
<g clip-path="url(#clip0_1967_1622)">
<path d="M348.392 228.93L425.275 265.056L425.112 265.38L348.246 229.256L348.392 228.93Z" fill="#FEFEFE"/>
<path d="M401.035 254.164L421.512 248.639L421.418 248.289L400.939 253.813L401.035 254.164Z" fill="#FEFEFE"/>
<path d="M355.5 229.706L431.715 192.203L431.876 192.527L355.661 230.027L355.5 229.706Z" fill="#FEFEFE"/>
<path d="M397.432 209.047L417.945 214.451L417.855 214.802L397.344 209.397L397.432 209.047Z" fill="#FEFEFE"/>
<path d="M385.166 215.197L393.611 195.767L393.279 195.625L384.834 215.059L385.166 215.197Z" fill="#FEFEFE"/>
<path d="M371.469 221.922L391.984 227.326L391.892 227.673L371.381 222.274L371.469 221.922Z" fill="#FEFEFE"/>
<path fill-rule="evenodd" clip-rule="evenodd" d="M356.508 224.154C359.99 192.171 407.853 170.203 443.737 181.763C443.829 181.797 443.913 181.832 443.99 181.866C444.399 182.044 444.403 182.053 444.256 182.587C444.11 183.121 443.799 184.144 443.617 184.721C443.564 184.871 443.521 185.024 443.489 185.18C428.905 219.086 383.194 241.21 356.66 224.238C356.612 224.209 356.563 224.183 356.512 224.161L356.508 224.154Z" fill="#F49C39"/>
<path d="M356.904 224.778L390.411 208.998C398.401 211.142 406.389 213.289 414.374 215.438L414.682 214.29L392.076 208.211L405.016 202.117L405.239 202.212L405.356 201.956L444.363 183.586L444.498 183.131C444.513 183.066 444.54 182.981 444.568 182.88L444.791 182.063L406.087 200.3L415.314 179.36L414.23 178.875L404.448 201.074L356.041 223.877L356.553 224.947L356.904 224.778Z" fill="#FEFEFE"/>
<path fill-rule="evenodd" clip-rule="evenodd" d="M98.0178 205.036C103.708 172.575 63.1022 137.368 24.479 138.178C24.1171 138.178 23.5151 138.215 23.1944 138.262C22.8737 138.309 22.8587 138.397 22.8943 138.755C22.8943 138.863 22.9093 139.002 22.9243 139.148C26.1762 177.783 66.0578 214.473 97.8471 205.088C97.9053 205.077 97.9596 205.058 98.0178 205.051V205.036Z" fill="#D1D411"/>
<path d="M44.9285 179.112L68.6182 179.556L57.5741 169.838L57.3266 169.875L57.2797 169.579L23.4199 139.769L24.2357 138.852L57.0378 167.734L53.9171 144.387L55.1286 144.222L58.4443 168.969L99.7699 205.348L98.9522 206.262L70.0416 180.808C61.5249 180.647 53.0126 180.486 44.5047 180.326L44.5272 179.105L44.9285 179.112Z" fill="#FEFEFE"/>
<path d="M104.083 227.263L67.757 213.809L67.8583 214.086L44.4162 222.595L44.2699 222.198L67.5882 213.745L52.5853 208.184L52.5534 208.202L52.5384 208.167L10.9409 192.765C10.8659 192.577 10.7965 192.39 10.7402 192.238L52.2252 207.599L40.598 186.345L40.973 186.141L52.8404 207.822L104.24 226.859L104.083 227.263Z" fill="#FEFEFE"/>
<path fill-rule="evenodd" clip-rule="evenodd" d="M99.3583 217.729C86.7371 187.11 33.1203 179.102 0.96338 200.815C0.882739 200.877 0.81335 200.939 0.747712 200.99C0.393268 201.282 0.389517 201.304 0.689576 201.778C0.989635 202.252 1.58788 203.185 1.92732 203.708C2.05859 203.895 2.14674 204.036 2.19362 204.12C26.3446 233.469 77.8722 242.243 99.2383 217.864C99.2814 217.818 99.3245 217.78 99.362 217.741L99.3583 217.729Z" fill="#F49C39"/>
<path d="M99.1394 218.461L61.4877 212.455C54.2075 216.861 46.9267 221.27 39.6453 225.682L39.0133 224.635L59.6123 212.155L45.0745 209.836L44.8869 209.997L44.6994 209.774L0.860794 202.783L0.594491 202.375C0.558859 202.313 0.508225 202.24 0.455714 202.148L0 201.408L43.4973 208.339L28.3631 190.281L29.3007 189.492L45.3426 208.635L99.7395 217.311L99.5389 218.521L99.1394 218.461Z" fill="#FEFEFE"/>
<path d="M84.5394 219.931L72.582 198.071L72.9477 197.867L84.9051 219.73L84.5394 219.931Z" fill="#FEFEFE"/>
<path fill-rule="evenodd" clip-rule="evenodd" d="M105.821 228.737C78.5011 210.302 29.7884 232.909 14.7236 268.415C14.6505 268.831 14.5529 269.283 14.4948 269.552C14.4029 269.961 14.4029 269.961 14.7123 270.092C14.9861 270.206 15.4981 270.427 15.8376 270.596C52.3791 282.772 101.433 261.471 105.803 228.909H105.791C105.806 228.851 105.818 228.795 105.829 228.741L105.821 228.737Z" fill="#D1D411"/>
<path d="M106.049 229.48L14.8033 271.024L14.2988 269.9C44.8323 255.994 75.367 242.09 105.903 228.188L106.415 229.311L106.049 229.48Z" fill="#FEFEFE"/>
<path d="M55.7681 252.285L31.4746 245.1L31.8178 243.93L56.4976 251.224L56.1582 252.399L55.7681 252.285Z" fill="#FEFEFE"/>
<path d="M59.5438 267.469L70.3271 244.57L71.4336 245.099C67.7829 252.852 64.1334 260.606 60.4852 268.363L59.375 267.837L59.5438 267.469Z" fill="#FEFEFE"/>
<path fill-rule="evenodd" clip-rule="evenodd" d="M353.453 236.175C373.949 211.584 425.525 219.503 449.207 248.57C449.395 248.945 449.603 249.335 449.727 249.569C449.914 249.927 449.914 249.927 449.672 250.131C449.431 250.335 449.022 250.659 448.763 250.905C417.964 272.136 366.421 265.527 353.53 236.33C353.504 236.28 353.475 236.229 353.449 236.182L353.453 236.175Z" fill="#D1D411"/>
<path d="M353.437 236.916L449.83 251.018L449.996 249.84C417.739 245.113 385.483 240.393 353.227 235.68L353.039 236.858L353.437 236.916Z" fill="#FEFEFE"/>
<path d="M406.532 244.612L427.257 231.342L426.619 230.336L405.564 243.814L406.2 244.82L406.532 244.612Z" fill="#FEFEFE"/>
<path d="M407.142 259.801L390.873 241.344L389.986 242.136L406.506 260.888L407.397 260.095L407.142 259.801Z" fill="#FEFEFE"/>
<path fill-rule="evenodd" clip-rule="evenodd" d="M379.461 251.294C347.756 343.289 126.225 385.984 85.1202 225.755C66.5372 153.566 112.829 86.5472 176.625 95.3985C195.154 97.9705 215.218 108.969 233.94 121.113C252.662 133.258 270.061 146.564 286.501 154.051C302.94 161.539 318.425 163.219 329.91 164.834C370.067 170.48 396.137 206.058 379.461 251.294Z" fill="#EBEBEB"/>
<path fill-rule="evenodd" clip-rule="evenodd" d="M253.038 343.003C253.492 320.731 253.916 287.508 252.432 262.374C250.662 232.441 246.176 213.989 242.039 202.476C237.902 190.963 234.127 186.386 229.9 183.11C225.673 179.833 220.995 177.848 216.98 176.28C212.965 174.712 209.621 173.556 204.404 172.805C199.187 172.054 192.027 170.909 184.857 171.441C177.688 171.973 170.542 174.165 163.853 176.995C157.164 179.826 151.027 184.073 145.263 190.914C139.498 197.755 134.117 207.191 130.338 218.092C126.407 229.506 124.427 241.501 124.482 253.572C124.577 265.795 126.938 277.874 130.053 287.593C133.168 297.311 137.045 304.673 138.888 308.401C140.732 312.129 140.542 312.223 140.447 312.268C140.351 312.313 140.353 312.318 140.115 317.226C139.899 321.722 139.158 334.899 138.687 342.819C138.738 342.849 243.691 343.007 253.025 343.007L253.038 343.003Z" fill="#84B486"/>
<path fill-rule="evenodd" clip-rule="evenodd" d="M212.347 174.566C209.556 173.602 206.677 172.911 203.752 172.506C198.762 171.785 191.917 170.704 185.075 171.208C179.942 171.582 174.815 172.856 169.885 174.613L169.98 174.87C173.356 183.907 180.874 191.992 191.108 191.992C201.342 191.992 208.859 183.923 212.232 174.894L212.347 174.566Z" fill="#FEFEFE"/>
<path fill-rule="evenodd" clip-rule="evenodd" d="M267.764 113.764C266.639 113.495 264.656 112.743 261.763 112.62C248.763 112.097 244.005 120.975 242.654 132.254C242.326 135.011 241.807 137.374 240.592 140.015C239.376 142.656 237.503 145.582 235.397 148.317C233.291 151.052 230.978 153.602 229 156.129C227.068 158.533 225.396 161.134 224.013 163.89C222.584 166.739 221.611 169.795 221.133 172.945C220.636 176.297 220.683 180.027 221.133 183.492C221.583 186.958 222.429 190.172 224.036 193.211C225.643 196.249 228.004 199.136 233.319 201.641C238.634 204.145 246.9 206.264 252.001 209.992C257.102 213.72 259.036 219.051 264.469 223.725C269.902 228.399 278.83 232.402 289.55 232.973C300.269 233.545 312.804 230.658 319.875 227.728C333.064 222.282 337.008 202.813 330.202 190.972C328.001 187.153 324.599 184.462 321.437 182.409C318.275 180.356 315.344 178.944 313.856 176.866C312.369 174.789 312.321 172.052 312.459 168.867C312.765 162.088 313.521 156.432 308.187 151.221C306.04 149.117 303.204 147.474 300.937 145.582C298.67 143.69 296.969 141.572 296.282 138.198C295.596 134.824 295.928 130.201 295.08 126.164C292.974 116.175 283.641 109.4 273.485 111.784C272.17 112.065 270.924 112.603 269.817 113.367C269.159 113.819 268.893 114.034 267.766 113.764H267.764Z" fill="#423026"/>
<path fill-rule="evenodd" clip-rule="evenodd" d="M190.694 156.35C187.98 156.163 184.957 155.402 181.413 153.188C177.868 150.974 173.808 147.291 170.927 141.034C168.047 134.777 166.346 125.961 166.158 120.581C165.971 115.201 167.284 113.275 169.395 111.312C171.874 109.014 174.776 107.219 177.941 106.028C181.505 104.679 185.762 103.967 190.058 103.924C194.355 103.881 198.703 104.495 202.837 106.005C206.97 107.515 210.89 109.919 213.134 111.921C215.379 113.924 215.948 115.535 215.895 118.978C215.842 122.421 215.188 127.711 213.551 133.054C211.914 138.396 209.297 143.801 206.582 147.598C203.866 151.395 201.048 153.592 198.433 154.874C195.819 156.155 193.413 156.539 190.694 156.35Z" fill="#33261E"/>
<path fill-rule="evenodd" clip-rule="evenodd" d="M170.54 136.679C172.245 135.889 174.585 137.314 175.774 139.864C176.963 142.413 176.545 145.122 174.836 145.916C173.128 146.711 170.791 145.279 169.6 142.732C168.409 140.184 168.833 137.47 170.538 136.681L170.54 136.679Z" fill="#ED8A46"/>
<path fill-rule="evenodd" clip-rule="evenodd" d="M211.432 137.048C209.727 136.253 207.383 137.683 206.194 140.232C205.005 142.782 205.423 145.498 207.132 146.289C208.84 147.079 211.181 145.65 212.368 143.104C213.555 140.558 213.141 137.844 211.43 137.053L211.432 137.048Z" fill="#ED8A46"/>
<path fill-rule="evenodd" clip-rule="evenodd" d="M199.915 157.109C197.254 158.795 194.289 159.732 191.161 159.732C188.032 159.732 185.06 158.795 182.403 157.109C182.516 158.829 182.528 160.553 182.438 162.274C182.271 164.621 181.756 166.461 180.769 168.053C179.789 169.573 178.498 170.868 176.981 171.854C175.97 172.502 174.88 173.019 173.738 173.392C173.414 173.503 173.26 173.557 173.176 173.754C176.506 182.693 183.314 188.819 191.179 188.819C199.045 188.819 205.837 182.702 209.17 173.776C209.08 173.561 208.922 173.503 208.586 173.388C207.446 173.015 206.358 172.5 205.348 171.854C203.83 170.867 202.538 169.571 201.558 168.049C200.573 166.457 200.057 164.618 199.89 162.274C199.802 160.555 199.814 158.831 199.926 157.113L199.915 157.109Z" fill="#F6AF7B"/>
<path fill-rule="evenodd" clip-rule="evenodd" d="M199.915 157.109C197.253 158.795 194.288 159.732 191.16 159.732C188.032 159.732 185.06 158.795 182.402 157.109C182.453 157.988 182.496 159.024 182.5 160.075C187.563 165.198 194.219 166.412 200.035 163.7C199.969 163.244 199.918 162.763 199.879 162.274C199.791 160.555 199.802 158.831 199.915 157.113V157.109Z" fill="#ED8A46"/>
<path fill-rule="evenodd" clip-rule="evenodd" d="M210.322 132.984C209.994 169.799 172.064 169.788 171.729 132.984C171.813 131.689 171.94 130.22 172.12 128.93C172.452 126.635 172.974 124.902 173.906 123.634C174.763 122.477 175.988 121.646 177.381 121.277C178.589 120.968 179.652 121.15 181.163 121.639C191.538 124.975 191.144 124.775 200.889 121.639C202.389 121.154 203.463 120.976 204.667 121.277C206.06 121.648 207.286 122.48 208.143 123.638C209.08 124.902 209.596 126.635 209.928 128.933C210.115 130.224 210.235 131.693 210.322 132.991V132.984Z" fill="#F6AF7B"/>
<path fill-rule="evenodd" clip-rule="evenodd" d="M181.883 132C179.882 131.314 178.507 131.474 176.846 132.721C176.779 132.778 176.701 132.82 176.617 132.846C176.533 132.871 176.445 132.88 176.357 132.87C176.27 132.861 176.186 132.834 176.109 132.792C176.032 132.749 175.965 132.692 175.911 132.622C175.857 132.553 175.818 132.474 175.795 132.389C175.773 132.304 175.768 132.216 175.78 132.129C175.793 132.042 175.823 131.959 175.868 131.884C175.914 131.809 175.974 131.744 176.045 131.693C178.091 130.159 179.893 129.947 182.333 130.775C182.496 130.835 182.628 130.956 182.701 131.113C182.774 131.27 182.781 131.45 182.721 131.612C182.662 131.775 182.54 131.907 182.383 131.98C182.225 132.052 182.046 132.06 181.883 132Z" fill="#423026"/>
<path fill-rule="evenodd" clip-rule="evenodd" d="M199.962 132.013C201.962 131.328 203.338 131.485 204.996 132.733C205.132 132.839 205.306 132.887 205.478 132.865C205.649 132.844 205.806 132.756 205.912 132.619C206.018 132.483 206.066 132.31 206.045 132.138C206.024 131.967 205.935 131.81 205.799 131.704C203.751 130.172 201.948 129.964 199.512 130.792C199.35 130.851 199.218 130.973 199.146 131.13C199.074 131.286 199.066 131.465 199.126 131.627C199.186 131.789 199.307 131.921 199.464 131.993C199.621 132.066 199.8 132.073 199.962 132.013Z" fill="#423026"/>
<path fill-rule="evenodd" clip-rule="evenodd" d="M202.995 149.116C204.934 149.116 206.518 147.679 206.518 145.916C206.518 144.154 204.934 142.719 202.995 142.719C201.055 142.719 199.473 144.156 199.473 145.916C199.473 147.677 201.054 149.116 202.995 149.116Z" fill="#FB9071"/>
<path fill-rule="evenodd" clip-rule="evenodd" d="M179.036 149.116C180.971 149.116 182.558 147.679 182.558 145.92C182.558 144.161 180.971 142.719 179.036 142.719C177.1 142.719 175.516 144.159 175.516 145.92C175.516 147.681 177.093 149.116 179.036 149.116Z" fill="#FB9071"/>
<path d="M191.277 135.195L191.311 142.018H191.481C191.785 142.002 192.088 142.005 192.391 142.029C192.789 142.05 193.182 142.125 193.559 142.252C193.947 142.391 194.301 142.612 194.596 142.898C194.872 143.162 195.072 143.494 195.176 143.861C195.257 144.226 195.238 144.606 195.122 144.961C194.994 145.34 194.781 145.686 194.501 145.972C194.214 146.26 193.876 146.493 193.505 146.658C193.119 146.828 192.707 146.931 192.286 146.963C191.86 146.988 191.433 146.96 191.014 146.879C190.609 146.81 190.182 146.692 189.762 146.592L189.884 146.103C190.285 146.208 190.69 146.311 191.099 146.388C191.478 146.458 191.864 146.483 192.248 146.461C192.611 146.435 192.967 146.347 193.301 146.201C193.615 146.066 193.9 145.869 194.137 145.622C194.366 145.392 194.54 145.113 194.643 144.805C194.733 144.54 194.748 144.254 194.685 143.981C194.609 143.704 194.457 143.453 194.246 143.258C194.002 143.021 193.711 142.84 193.391 142.726C193.056 142.614 192.708 142.546 192.355 142.526C192.008 142.503 191.701 142.511 191.496 142.514L190.814 142.533L190.774 135.203L191.277 135.195Z" fill="#ED8A46"/>
<path fill-rule="evenodd" clip-rule="evenodd" d="M180.661 140.288C181.54 140.288 182.256 139.222 182.256 137.92C182.256 136.618 181.54 135.547 180.661 135.547C179.781 135.547 179.068 136.611 179.068 137.92C179.068 139.23 179.781 140.288 180.661 140.288Z" fill="#141515"/>
<path fill-rule="evenodd" clip-rule="evenodd" d="M201.061 140.358C201.944 140.358 202.663 139.296 202.663 137.991C202.663 136.685 201.944 135.617 201.061 135.617C200.178 135.617 199.469 136.685 199.469 137.991C199.469 139.296 200.187 140.358 201.061 140.358Z" fill="#141515"/>
<path fill-rule="evenodd" clip-rule="evenodd" d="M196.074 150.289H185.977C186.185 151.476 186.805 152.551 187.728 153.326C188.652 154.101 189.819 154.525 191.025 154.525C192.231 154.525 193.398 154.101 194.322 153.326C195.245 152.551 195.865 151.476 196.074 150.289Z" fill="#FEFEFE"/>
<path fill-rule="evenodd" clip-rule="evenodd" d="M320.853 342.998C320.149 329.282 318.885 306.825 318.25 295.431L317.586 283.682L318.625 280.617C319.662 277.551 321.745 271.42 323.253 263.915C324.761 256.411 325.708 247.544 325.239 238.813C324.77 230.082 322.874 221.498 319.902 213.149C310.913 187.919 294.92 178.928 285.269 177.33C283.394 177.019 281.477 176.672 279.353 176.239C274.477 175.557 269.893 175.561 266.246 175.696C260.82 175.897 257.48 176.389 254.343 177.195C251.205 178 248.257 179.109 243.691 181.809C239.124 184.508 232.939 188.805 226.469 195.939C219.999 203.072 213.25 213.053 207.867 221.85C202.664 230.263 198.083 239.045 194.162 248.125C189.862 257.975 185.281 270.054 182.987 276.093L180.693 282.116L184.497 283.225C188.302 284.336 195.906 286.554 204.996 289.997C214.086 293.44 224.671 298.114 230.031 311.68C233.423 320.254 234.719 332.388 235.244 342.992L320.853 342.998Z" fill="#D55169"/>
<path fill-rule="evenodd" clip-rule="evenodd" d="M289.131 178.201C287.867 177.796 286.576 177.483 285.267 177.264C283.392 176.961 281.475 176.629 279.351 176.206C274.475 175.547 269.891 175.547 266.244 175.678C260.818 175.865 257.478 176.352 254.341 177.133C252.956 177.468 251.594 177.89 250.264 178.398L250.29 178.478C253.229 186.637 260.066 194.673 269.687 194.673C279.307 194.673 286.068 186.691 289.003 178.536L289.131 178.201Z" fill="#FEFEFE"/>
<path fill-rule="evenodd" clip-rule="evenodd" d="M251.801 146.622C253.184 145.685 255.254 146.344 256.43 148.081C257.606 149.818 257.441 151.983 256.055 152.916C254.669 153.849 252.602 153.193 251.426 151.455C250.251 149.716 250.416 147.553 251.801 146.622Z" fill="#ED8A46"/>
<path fill-rule="evenodd" clip-rule="evenodd" d="M287.531 146.693C286.149 145.756 284.079 146.412 282.907 148.148C281.734 149.885 281.892 152.05 283.282 152.983C284.671 153.916 286.732 153.261 287.904 151.522C289.076 149.784 288.919 147.62 287.529 146.693H287.531Z" fill="#ED8A46"/>
<path fill-rule="evenodd" clip-rule="evenodd" d="M287.535 138.572V138.814C287.535 153.004 279.541 164.506 269.68 164.506C259.979 164.506 252.085 153.373 251.83 139.503C257.88 139.282 264.039 136.259 268.318 130.781C268.931 129.991 269.494 129.164 270.006 128.305C270.353 128.833 270.724 129.348 271.12 129.861C275.377 135.316 281.506 138.336 287.526 138.582L287.535 138.572Z" fill="#F6AF7B"/>
<path fill-rule="evenodd" clip-rule="evenodd" d="M277.243 162.082C274.944 163.625 272.384 164.493 269.68 164.493C266.975 164.493 264.415 163.625 262.118 162.078C262.215 163.662 262.223 165.25 262.144 166.834C262.002 168.991 261.556 170.69 260.706 172.155C259.875 173.54 258.76 174.735 257.433 175.66C256.563 176.246 255.622 176.72 254.634 177.072C254.221 177.224 254.51 177.115 254.039 177.259C256.912 185.491 262.9 191.281 269.687 191.281C276.474 191.281 282.387 185.541 285.268 177.317C284.126 176.81 282.961 176.369 281.924 175.65C280.601 174.727 279.486 173.536 278.653 172.155C277.806 170.693 277.354 168.994 277.215 166.838C277.137 165.255 277.147 163.668 277.243 162.086V162.082Z" fill="#F6AF7B"/>
<path fill-rule="evenodd" clip-rule="evenodd" d="M277.244 162.082C274.945 163.625 272.385 164.493 269.681 164.493C266.976 164.493 264.416 163.625 262.119 162.078C262.159 162.827 262.192 163.699 262.2 164.596C265.219 167.968 269.009 169.967 273.124 169.967C274.627 169.965 276.118 169.698 277.529 169.18C277.367 168.407 277.262 167.623 277.216 166.834C277.138 165.251 277.148 163.664 277.244 162.082Z" fill="#ED8A46"/>
<path fill-rule="evenodd" clip-rule="evenodd" d="M261.089 144.258C260.279 144.397 259.776 145.36 259.951 146.412C260.125 147.465 260.935 148.207 261.74 148.065C262.544 147.922 263.052 146.967 262.865 145.916C262.677 144.865 261.89 144.123 261.08 144.258H261.089Z" fill="#141515"/>
<path fill-rule="evenodd" clip-rule="evenodd" d="M260.625 144.453C259.5 145.092 258.643 145.081 257.387 144.847C258.855 145.718 259.431 145.86 260.95 144.993L260.625 144.453Z" fill="#141515"/>
<path fill-rule="evenodd" clip-rule="evenodd" d="M278.291 144.275C279.097 144.408 279.603 145.373 279.416 146.427C279.228 147.482 278.437 148.214 277.63 148.076C276.824 147.937 276.318 146.978 276.494 145.931C276.67 144.884 277.473 144.134 278.283 144.275H278.291Z" fill="#141515"/>
<path fill-rule="evenodd" clip-rule="evenodd" d="M278.75 144.461C279.875 145.102 280.731 145.092 281.989 144.858C280.519 145.725 279.945 145.868 278.426 145.004L278.75 144.461Z" fill="#141515"/>
<path fill-rule="evenodd" clip-rule="evenodd" d="M262.615 141.291C260.614 140.605 259.239 140.763 257.579 142.012C257.443 142.118 257.27 142.166 257.098 142.145C256.926 142.124 256.77 142.035 256.663 141.899C256.557 141.762 256.509 141.589 256.53 141.418C256.552 141.246 256.64 141.09 256.777 140.984C258.825 139.446 260.625 139.234 263.067 140.069C263.221 140.135 263.343 140.258 263.409 140.411C263.476 140.565 263.48 140.738 263.422 140.895C263.364 141.052 263.248 141.18 263.098 141.254C262.947 141.328 262.775 141.341 262.615 141.291Z" fill="#423026"/>
<path fill-rule="evenodd" clip-rule="evenodd" d="M276.134 141.297C278.137 140.611 279.51 140.769 281.172 142.022C281.309 142.122 281.48 142.165 281.649 142.142C281.817 142.118 281.97 142.029 282.075 141.895C282.179 141.761 282.227 141.591 282.208 141.422C282.19 141.253 282.106 141.098 281.974 140.99C279.926 139.452 278.124 139.244 275.684 140.076C275.522 140.135 275.39 140.257 275.318 140.413C275.245 140.57 275.238 140.749 275.298 140.911C275.358 141.073 275.479 141.205 275.636 141.277C275.793 141.349 275.972 141.357 276.134 141.297Z" fill="#423026"/>
<path fill-rule="evenodd" clip-rule="evenodd" d="M273.139 156.802C272.357 157.397 271.433 157.78 270.459 157.913C269.484 158.046 268.492 157.925 267.579 157.561L266.17 156.811C266.115 156.773 266.076 156.715 266.063 156.648C266.05 156.582 266.064 156.514 266.101 156.457C266.119 156.429 266.143 156.405 266.171 156.387C266.199 156.368 266.23 156.355 266.263 156.348C266.296 156.342 266.33 156.342 266.363 156.349C266.396 156.356 266.427 156.369 266.455 156.388L267.768 157.077C268.596 157.409 269.496 157.521 270.38 157.404C271.265 157.286 272.104 156.943 272.816 156.407C272.841 156.385 272.87 156.369 272.902 156.359C272.933 156.348 272.966 156.344 272.999 156.347C273.032 156.349 273.064 156.358 273.094 156.373C273.123 156.388 273.149 156.408 273.171 156.433C273.193 156.458 273.21 156.488 273.22 156.52C273.231 156.551 273.235 156.585 273.232 156.618C273.23 156.652 273.221 156.684 273.206 156.714C273.191 156.744 273.17 156.771 273.145 156.793L273.139 156.802Z" fill="#141515"/>
<path fill-rule="evenodd" clip-rule="evenodd" d="M270.015 144.787C269.503 147.175 269.591 149.626 271.358 151.42C271.404 151.462 271.432 151.52 271.436 151.582C271.441 151.644 271.42 151.705 271.38 151.752C271.36 151.775 271.335 151.794 271.307 151.808C271.28 151.822 271.25 151.83 271.219 151.832C271.188 151.834 271.157 151.83 271.128 151.82C271.098 151.81 271.071 151.795 271.048 151.774C269.143 149.83 269 147.278 269.561 144.68C269.568 144.651 269.58 144.622 269.598 144.598C269.615 144.573 269.638 144.552 269.663 144.535C269.689 144.519 269.718 144.508 269.748 144.503C269.778 144.498 269.809 144.499 269.839 144.506C269.869 144.513 269.897 144.526 269.922 144.543C269.947 144.561 269.969 144.584 269.985 144.61C270.001 144.636 270.012 144.665 270.018 144.696C270.023 144.726 270.022 144.757 270.015 144.787Z" fill="#ED8A46"/>
<path fill-rule="evenodd" clip-rule="evenodd" d="M271.355 151.778C270.59 152.413 270.468 152.51 269.708 153.141C269.685 153.161 269.658 153.176 269.628 153.185C269.599 153.194 269.568 153.197 269.538 153.194C269.508 153.192 269.478 153.183 269.451 153.169C269.424 153.154 269.4 153.135 269.38 153.112C269.361 153.088 269.346 153.061 269.337 153.032C269.328 153.003 269.324 152.972 269.327 152.941C269.33 152.911 269.339 152.881 269.353 152.854C269.367 152.827 269.387 152.803 269.41 152.784L271.057 151.424C271.08 151.403 271.107 151.388 271.136 151.378C271.166 151.369 271.197 151.365 271.227 151.368C271.258 151.371 271.288 151.38 271.315 151.395C271.342 151.409 271.366 151.429 271.385 151.454C271.423 151.501 271.442 151.561 271.436 151.622C271.431 151.682 271.401 151.738 271.355 151.778Z" fill="#ED8A46"/>
<path fill-rule="evenodd" clip-rule="evenodd" d="M260.051 156.397C261.964 156.397 263.521 155.06 263.521 153.426C263.521 151.793 261.964 150.453 260.051 150.453C258.138 150.453 256.576 151.785 256.576 153.426C256.576 155.067 258.135 156.397 260.051 156.397Z" fill="#FB9071"/>
<path fill-rule="evenodd" clip-rule="evenodd" d="M279.34 156.397C281.28 156.397 282.86 155.06 282.86 153.426C282.86 151.793 281.28 150.453 279.34 150.453C277.401 150.453 275.82 151.785 275.82 153.426C275.82 155.067 277.398 156.397 279.34 156.397Z" fill="#FB9071"/>
<path fill-rule="evenodd" clip-rule="evenodd" d="M269.426 126.797C270.602 130.502 272.376 132.741 275.556 135.013C279.513 137.823 284.888 138.269 289.622 138.261C284.601 138.797 280.374 138.812 275.875 136.027C272.124 133.707 270.313 131.089 269.431 126.797H269.426Z" fill="#423026"/>
<path fill-rule="evenodd" clip-rule="evenodd" d="M270.206 126.367C269.684 131.163 267.891 134.754 263.591 137.18C259.049 139.741 254.179 139.544 249.162 139.456C254.113 139.062 260.662 138.744 264.715 135.644C267.841 133.252 269.414 130.149 270.206 126.367Z" fill="#423026"/>
<path fill-rule="evenodd" clip-rule="evenodd" d="M298.882 214.466C301.652 241.718 293.194 272.508 271.416 290.334C268.535 292.696 268.535 292.696 271.179 289.721C289.196 269.49 297.541 238.654 298.432 211.916C298.481 210.498 298.528 210.979 298.882 214.466Z" fill="#964150"/>
<path fill-rule="evenodd" clip-rule="evenodd" d="M314.012 289.366C311.019 293.717 307.483 297.668 303.487 301.123C299.05 304.92 293.855 308.078 289.058 309.942C284.261 311.806 279.869 312.377 277.678 312.655L275.48 312.939L277.084 313.529C280.245 314.722 283.549 315.499 286.911 315.841C291.916 316.382 298.726 316.287 306.115 314.496C310.548 313.417 315.203 311.731 319.075 310.174C318.758 304.496 318.466 299.322 318.25 295.437L317.586 283.688L318.625 280.623C318.726 280.331 318.833 280.014 318.95 279.664C318.726 280.2 318.505 280.773 318.216 281.502C317.119 284.275 315.709 286.915 314.014 289.37L314.012 289.366Z" fill="#964150"/>
<path d="M193.351 330.018C192.341 330.331 191.296 330.52 190.24 330.58C188.563 330.655 186.882 330.552 185.227 330.275C183.475 329.983 181.851 329.479 180.24 328.977" stroke="#141515" stroke-width="0.57" stroke-miterlimit="10"/>
<path d="M192.267 333.124C191.24 333.432 190.177 333.603 189.105 333.632C187.463 333.64 185.824 333.511 184.204 333.244C182.815 333.001 181.441 332.677 180.09 332.273" stroke="#141515" stroke-width="0.57" stroke-miterlimit="10"/>
<path d="M189.401 336.966C188.411 336.966 187.419 336.955 186.329 336.89C185.137 336.827 183.95 336.681 182.777 336.451C181.508 336.193 180.167 335.796 178.824 335.398" stroke="#141515" stroke-width="0.57" stroke-miterlimit="10"/>
<path fill-rule="evenodd" clip-rule="evenodd" d="M140.512 312.148C140.512 312.24 140.486 312.255 140.459 312.266C140.366 312.317 140.366 312.317 140.128 317.225C140.092 317.995 140.051 318.881 140 319.87C151.263 335.463 164.444 319.012 164.005 323.217L163.817 324.948C162.908 323.961 164.029 320.34 163.375 320.055C162.097 319.493 162.529 317.641 158.289 320.361C156.503 321.696 154.652 322.359 152.627 323.56C151.188 324.409 151.188 324.384 150.016 323.315C148.844 322.245 146.515 320.117 144.69 317.948C143.021 315.96 142.192 314.104 140.51 312.141L140.512 312.148Z" fill="#5D855F"/>
<path fill-rule="evenodd" clip-rule="evenodd" d="M157.853 225.228C157.191 225.602 155.586 234.476 155.162 243.024C154.738 251.572 155.49 259.773 157.287 268.501C159.084 277.228 161.914 286.484 164.749 292.938C167.585 299.391 170.418 303.084 171.836 304.927L173.252 306.772L171.266 301.714C169.284 296.666 165.315 286.569 162.763 275.621C160.211 264.674 159.08 252.879 158.656 242.923C158.232 232.966 158.514 224.853 157.853 225.231V225.228Z" fill="#5D855F"/>
<path fill-rule="evenodd" clip-rule="evenodd" d="M264.801 342.998C264.677 340.541 264.539 337.961 264.396 335.395C263.95 327.394 263.425 319.564 262.318 312.981C261.212 306.398 259.505 301.067 257.382 296.232C255.259 291.397 252.705 287.053 249.423 283.54C246.141 280.028 242.122 277.334 239.065 275.648C236.009 273.962 233.893 273.278 231.148 272.739C223.744 271.283 219.475 271.287 212.071 272.739C209.326 273.282 207.216 273.968 204.159 275.652C201.102 277.336 197.078 280.028 193.802 283.544C190.525 287.06 187.965 291.399 185.841 296.235C183.716 301.072 182.013 306.402 180.901 312.985C179.789 319.567 179.271 327.409 178.823 335.399C178.681 337.961 178.545 340.541 178.418 342.998H264.801Z" fill="#F2DEBF"/>
<path fill-rule="evenodd" clip-rule="evenodd" d="M232.297 272.986C231.922 272.897 231.539 272.815 231.148 272.739C223.744 271.283 219.475 271.287 212.072 272.739C211.593 272.832 211.134 272.926 210.688 273.037C213.39 276.71 217.212 279.179 221.446 279.179C225.681 279.179 229.582 276.796 232.297 272.982V272.986Z" fill="#F2DEBF"/>
<path fill-rule="evenodd" clip-rule="evenodd" d="M236.687 250.401C238.709 247.461 240.787 243.428 241.919 239.569C243.052 235.71 243.243 232.035 242.726 228.837C242.208 225.639 240.976 222.929 238.225 220.853C235.474 218.777 231.234 217.339 226.498 217.054C221.763 216.769 216.544 217.644 212.808 218.869C209.072 220.094 206.835 221.679 205.415 223.399C203.996 225.119 203.411 226.984 203.09 228.269C202.888 229.022 202.758 229.791 202.702 230.568L202.677 230.907L202.358 231.053C202.042 231.192 201.402 231.478 200.571 232.552C199.74 233.625 198.733 235.487 198.934 238.485C199.135 241.482 200.549 245.603 202.334 248.642C204.119 251.68 206.272 253.608 208.581 255.282C210.89 256.957 213.374 258.371 215.276 259.166C217.178 259.96 218.5 260.117 220.979 259.658C223.458 259.199 227.098 258.115 229.894 256.65C232.691 255.185 234.658 253.345 236.674 250.41L236.687 250.401Z" fill="#33261E"/>
<path fill-rule="evenodd" clip-rule="evenodd" d="M204.001 250.832C205.186 249.616 207.377 249.82 208.892 251.295C210.407 252.769 210.67 254.942 209.481 256.165C208.292 257.388 206.105 257.175 204.588 255.708C203.071 254.241 202.814 252.051 204.001 250.838V250.832Z" fill="#ED8A46"/>
<path fill-rule="evenodd" clip-rule="evenodd" d="M238.735 250.81C237.544 249.593 235.36 249.797 233.842 251.269C232.325 252.742 232.064 254.924 233.252 256.14C234.439 257.355 236.627 257.153 238.141 255.681C239.654 254.208 239.919 252.03 238.735 250.81Z" fill="#ED8A46"/>
<path fill-rule="evenodd" clip-rule="evenodd" d="M236.829 236.494C237.689 239.078 238.125 241.784 238.118 244.506C238.118 255.92 230.725 265.172 221.615 265.172C212.677 265.172 205.4 256.286 205.111 245.188L205.674 244.813C206.715 244.124 208.885 242.682 210.775 240.599C212.537 238.597 213.987 236.341 215.075 233.907C215.876 232.034 215.876 231.054 215.876 230.561C215.876 230.069 215.876 230.063 216.163 230.676C216.631 231.761 217.264 232.768 218.038 233.662C219.064 234.804 220.553 235.865 221.296 236.397L222.046 236.927L221.796 236.401C221.384 235.572 221.035 234.712 220.754 233.83C220.543 233.061 220.412 232.273 220.362 231.478L220.33 231.015L220.774 231.536C221.494 232.396 222.282 233.197 223.13 233.932C224.05 234.688 225.062 235.326 226.142 235.829C226.653 236.075 227.196 236.251 227.755 236.35L228.015 236.397L227.788 236.226C227.375 235.926 226.991 235.586 226.642 235.213C226.128 234.642 225.694 234.003 225.352 233.315C225.045 232.681 224.784 232.026 224.572 231.354L224.437 230.945L225.305 231.551C226.168 232.159 227.897 233.364 229.508 234.188C231.119 235.012 232.604 235.449 234.181 235.874C235.053 236.138 235.942 236.34 236.843 236.479L236.829 236.494Z" fill="#F6AF7B"/>
<path fill-rule="evenodd" clip-rule="evenodd" d="M225.693 257.438C225.534 258.311 225.074 259.1 224.392 259.669C223.71 260.237 222.85 260.549 221.961 260.549C221.073 260.549 220.213 260.237 219.531 259.669C218.849 259.1 218.389 258.311 218.23 257.438H225.693Z" fill="#FEFEFE"/>
<path fill-rule="evenodd" clip-rule="evenodd" d="M213.041 250.098C213.662 250.098 214.166 249.349 214.166 248.413C214.166 247.476 213.656 246.727 213.041 246.727C212.426 246.727 211.904 247.476 211.904 248.413C211.904 249.349 212.413 250.098 213.041 250.098Z" fill="#141515"/>
<path fill-rule="evenodd" clip-rule="evenodd" d="M230.319 250.098C230.943 250.098 231.444 249.349 231.444 248.413C231.444 247.476 230.934 246.727 230.319 246.727C229.703 246.727 229.193 247.476 229.193 248.413C229.193 249.349 229.702 250.098 230.319 250.098Z" fill="#141515"/>
<path fill-rule="evenodd" clip-rule="evenodd" d="M222.581 245.381L222.478 250.315C223.826 250.611 225.161 251.351 224.728 253.022C224.312 254.659 222.823 254.541 221.519 254.283C221.437 254.266 221.365 254.216 221.319 254.146C221.273 254.075 221.257 253.99 221.274 253.907C221.292 253.825 221.341 253.753 221.412 253.707C221.482 253.661 221.568 253.645 221.65 253.663C222.494 253.828 223.526 254.09 224.006 253.142C224.728 251.728 223.22 251.081 222.131 250.894H222.087L221.829 250.467C221.829 250.445 221.93 245.645 221.937 245.375C221.937 245.334 221.946 245.292 221.962 245.254C221.978 245.216 222.002 245.181 222.032 245.152C222.062 245.122 222.097 245.099 222.136 245.084C222.175 245.069 222.216 245.062 222.258 245.063C222.342 245.065 222.422 245.1 222.48 245.161C222.538 245.222 222.57 245.303 222.569 245.387L222.581 245.381Z" fill="#ED8A46"/>
<path fill-rule="evenodd" clip-rule="evenodd" d="M235.479 273.949C234.076 273.414 232.626 273.009 231.149 272.739C223.745 271.283 219.477 271.287 212.073 272.739C210.514 273.023 208.987 273.458 207.512 274.037L208.147 274.904C211.302 279.192 215.99 282.33 221.448 282.33C226.976 282.33 231.751 279.192 234.879 274.792L235.479 273.949Z" fill="#FEFEFE"/>
<path fill-rule="evenodd" clip-rule="evenodd" d="M232.305 272.975C229.869 270.412 228.315 267.139 227.87 263.633C225.958 264.633 223.833 265.161 221.675 265.171C219.517 265.181 217.387 264.673 215.466 263.691C214.96 267.437 213.163 270.579 210.688 273.041C213.39 276.714 217.212 279.183 221.446 279.183C225.681 279.183 229.591 276.796 232.305 272.975Z" fill="#F6AF7B"/>
<path fill-rule="evenodd" clip-rule="evenodd" d="M229.214 268.376C228.537 266.869 228.084 265.271 227.871 263.633C225.959 264.633 223.835 265.161 221.676 265.171C219.518 265.181 217.389 264.673 215.467 263.691C215.365 264.45 215.211 265.201 215.008 265.939C217.622 268.112 220.758 269.378 224.131 269.378C225.874 269.377 227.6 269.038 229.214 268.382V268.376Z" fill="#ED8A46"/>
<path fill-rule="evenodd" clip-rule="evenodd" d="M274.21 307.886L271.146 298.509C270.377 296.161 270.377 296.161 269.021 296.03C267.665 295.899 264.944 295.656 262.549 294.702C260.154 293.749 258.073 292.128 256.985 291.832C255.897 291.536 255.805 292.581 256.126 293.685C256.447 294.788 257.178 295.972 257.949 296.905C258.547 297.613 259.205 298.268 259.916 298.863L260.317 299.205L258.993 298.831C257.681 298.456 255.027 297.737 252.84 296.957C250.654 296.178 248.934 295.352 247.891 295.271C246.849 295.191 246.5 295.85 246.477 296.478C246.455 297.105 246.759 297.692 246.924 297.995C246.978 298.117 247.046 298.233 247.124 298.342C247.135 298.353 247.135 298.353 246.642 298.308C246.149 298.263 245.155 298.166 244.549 298.422C243.944 298.679 243.735 299.293 243.7 299.825C243.66 300.32 243.803 300.811 244.101 301.208C244.383 301.561 244.709 301.876 245.073 302.145L245.298 302.321L245.11 302.448C244.923 302.579 244.577 302.841 244.471 303.197C244.364 303.553 244.508 304.037 244.825 304.509C245.139 304.934 245.494 305.327 245.885 305.683L246.136 305.923L246.055 306.062C245.892 306.314 245.816 306.613 245.84 306.912C245.877 307.337 246.11 307.907 247.355 308.754C248.6 309.6 250.837 310.734 253.043 311.5C255.221 312.251 257.493 312.693 259.794 312.811C262.231 312.947 264.675 312.844 267.091 312.504C269.039 312.214 270.966 311.798 272.86 311.256C273.529 311.078 274.187 310.862 274.831 310.608C275.058 310.516 275.058 310.516 275.039 310.458C275.02 310.4 274.981 310.271 274.97 310.235C274.958 310.2 274.97 310.211 274.197 307.881L274.21 307.886Z" fill="#F6AF7B"/>
<path d="M247.311 298.062C248.037 298.567 248.804 299.01 249.605 299.387C250.103 299.619 250.704 299.868 251.356 300.116C252.009 300.363 252.755 300.629 253.458 300.852C254.846 301.298 256.204 301.657 257.566 302.019L257.399 302.661C256.033 302.304 254.668 301.942 253.254 301.487C252.528 301.253 251.795 300.998 251.125 300.738C250.456 300.477 249.856 300.234 249.327 299.988C248.495 299.599 247.698 299.139 246.945 298.613L247.311 298.062Z" fill="#ED8A46"/>
<path d="M245.025 302.522L245.198 302.205L245.34 301.938C246.304 302.445 247.264 302.957 248.399 303.474C248.961 303.732 249.575 303.994 250.235 304.247C250.895 304.5 251.591 304.749 252.332 304.98C253.813 305.439 255.486 305.826 257.151 306.216L257.001 306.868C255.328 306.475 253.654 306.085 252.125 305.619C251.375 305.384 250.653 305.13 249.985 304.869C249.318 304.609 248.69 304.347 248.11 304.081C246.945 303.552 245.985 303.041 245.018 302.528L245.025 302.522Z" fill="#ED8A46"/>
<path d="M246.252 305.695C246.859 305.98 247.469 306.269 247.844 306.445C248.371 306.696 248.911 306.943 249.475 307.194C250.04 307.445 250.582 307.7 251.182 307.943C251.774 308.189 252.378 308.404 252.992 308.588C254.305 308.944 255.637 309.224 256.982 309.427L256.932 309.712L256.876 310.086C255.502 309.881 254.143 309.594 252.804 309.226C252.167 309.041 251.541 308.821 250.929 308.567C250.346 308.329 249.764 308.067 249.192 307.805C248.62 307.542 248.099 307.304 247.559 307.055C246.855 306.727 246.405 306.516 245.961 306.306L246.252 305.695Z" fill="#ED8A46"/>
<path fill-rule="evenodd" clip-rule="evenodd" d="M191.014 284.742C189.623 284.367 186.934 283.7 185.585 283.371L184.239 283.039L183.402 284.806C182.562 286.578 180.884 290.118 179.652 293.586C178.42 297.053 177.647 300.449 177.326 303.211C177.006 305.972 177.154 308.091 177.493 309.687C177.737 310.951 178.249 312.148 178.993 313.199C179.601 314.059 180.284 314.713 180.805 314.982C181.326 315.252 181.681 315.144 182.086 314.093C182.491 313.042 182.937 311.065 183.586 308.696C184.235 306.326 185.086 303.565 185.679 301.924C186.272 300.283 186.602 299.768 186.778 299.472C186.865 299.348 186.935 299.213 186.986 299.071C187.001 299.035 187.001 299.035 187.483 299.895C187.965 300.755 188.938 302.48 189.734 303.327C190.529 304.174 191.138 304.155 191.493 303.716C191.847 303.278 191.939 302.433 191.738 300.895C191.538 299.357 191.045 297.149 191.08 294.526C191.116 291.903 191.686 288.906 192.018 287.306C192.35 285.707 192.479 285.523 192.49 285.373C192.502 285.223 192.406 285.118 191.011 284.734L191.014 284.742Z" fill="#F6AF7B"/>
<path d="M181.281 302.092L181.656 302.215L181.757 302.245C181.007 304.517 180.275 306.782 179.957 308.729C179.812 309.624 179.739 310.529 179.739 311.436C179.739 312.284 179.786 313.108 179.837 313.933L179.336 313.963C179.289 313.135 179.238 312.31 179.238 311.436C179.237 310.5 179.311 309.566 179.461 308.642C179.786 306.664 180.534 304.375 181.279 302.086L181.281 302.092Z" fill="#ED8A46"/>
<path d="M179.247 300.812L179.641 300.917L179.733 300.94C179.259 302.789 178.795 304.645 178.52 306.121C178.385 306.871 178.304 307.515 178.25 308.088C178.195 308.662 178.18 309.149 178.18 309.568C178.18 309.988 178.195 310.318 178.218 310.64C178.24 310.962 178.276 311.22 178.308 311.494L177.809 311.552C177.775 311.275 177.743 310.99 177.721 310.677C177.698 310.364 177.678 310.007 177.678 309.568C177.678 309.13 177.698 308.632 177.751 308.043C177.803 307.455 177.892 306.79 178.025 306.031C178.304 304.514 178.775 302.66 179.247 300.812Z" fill="#ED8A46"/>
<path fill-rule="evenodd" clip-rule="evenodd" d="M170.149 310.798C166.239 313.996 162.332 317.196 160.38 318.799L158.426 320.401L160.301 322.662C162.167 324.927 165.899 329.456 170.428 332.562C174.957 335.668 180.3 337.339 183.573 337.881C186.845 338.422 188.051 337.836 188.745 337.339C189.439 336.843 189.628 336.44 189.728 336.24C189.827 336.039 189.819 336.041 190.315 335.813C190.81 335.584 191.802 335.142 192.323 334.615C192.518 334.407 192.668 334.161 192.765 333.893C192.862 333.625 192.903 333.34 192.886 333.055C192.892 332.803 192.868 332.552 192.816 332.306C192.794 332.182 192.794 332.16 192.955 331.97C193.237 331.685 193.469 331.355 193.641 330.993C193.8 330.583 193.884 330.148 193.889 329.709C193.901 329.527 193.893 329.343 193.865 329.162C193.853 329.093 193.853 329.093 194.052 328.885C194.251 328.677 194.615 328.246 194.527 327.812C194.438 327.377 193.863 326.926 192.58 326.513C191.297 326.101 189.281 325.719 187.329 325.33C185.377 324.94 183.492 324.541 181.98 323.906C180.832 323.397 179.753 322.743 178.772 321.96L178.209 321.521L179.334 321.394C180.459 321.263 182.697 321 184.281 320.377C185.866 319.753 186.785 318.762 187.106 318.007C187.426 317.252 187.136 316.733 186.584 316.533C186.033 316.332 185.2 316.448 184.021 316.401C182.519 316.313 181.027 316.104 179.559 315.778C177.811 315.403 175.848 314.892 174.248 314.032C172.649 313.172 171.403 311.971 170.166 310.789L170.149 310.798Z" fill="#F6AF7B"/>
<path d="M193.948 329.274C193.416 329.319 192.879 329.37 192.285 329.394C191.617 329.414 190.949 329.392 190.284 329.329C189.543 329.263 188.703 329.141 187.846 328.973C186.944 328.808 186.017 328.598 185.181 328.377C184.344 328.156 183.622 327.926 182.93 327.691C182.238 327.457 181.573 327.214 180.922 326.97L181.091 326.5C181.747 326.74 182.403 326.985 183.092 327.217C183.78 327.45 184.511 327.678 185.314 327.892C186.117 328.105 187.052 328.315 187.94 328.484C188.78 328.643 189.605 328.765 190.327 328.83C190.972 328.893 191.621 328.913 192.27 328.892C192.845 328.87 193.376 328.823 193.901 328.772L193.948 329.274Z" fill="#ED8A46"/>
<path d="M192.988 332.401C191.92 332.439 190.851 332.413 189.786 332.324C189.143 332.262 188.44 332.174 187.688 332.043C186.983 331.919 186.231 331.762 185.437 331.565C183.772 331.157 181.917 330.58 180.062 330.001L180.209 329.523C182.06 330.099 183.911 330.676 185.55 331.08C186.341 331.267 187.086 331.427 187.776 331.55C188.526 331.675 189.214 331.768 189.839 331.828C190.888 331.909 191.941 331.934 192.993 331.901V332.2V332.401H192.988Z" fill="#ED8A46"/>
<path d="M190.199 336.168C189.377 336.087 188.556 336.003 187.793 335.915C187.029 335.827 186.223 335.718 185.475 335.591C184.727 335.463 184.014 335.321 183.335 335.163C182.656 335.006 182.022 334.836 181.422 334.658C180.822 334.48 180.254 334.311 179.734 334.139C179.26 333.98 178.716 333.792 178.178 333.607L178.335 333.133C178.817 333.303 179.299 333.464 179.894 333.661C180.434 333.837 180.989 334.011 181.563 334.18C182.137 334.349 182.778 334.515 183.457 334.678C184.136 334.841 184.83 334.978 185.565 335.098C186.3 335.218 187.065 335.325 187.857 335.416C188.648 335.508 189.46 335.591 190.255 335.671L190.199 336.168Z" fill="#ED8A46"/>
<path d="M243.36 311.711L245.605 343.001H244.768L242.527 311.769L243.36 311.711Z" fill="#BA9661"/>
<path fill-rule="evenodd" clip-rule="evenodd" d="M197.524 342.996L199.755 311.804L198.923 311.742L196.684 342.996H197.524Z" fill="#BA9661"/>
<path fill-rule="evenodd" clip-rule="evenodd" d="M212.281 258.529C214.051 258.529 215.497 257.293 215.497 255.779C215.497 254.265 214.051 253.023 212.281 253.023C210.51 253.023 209.064 254.265 209.064 255.779C209.064 257.293 210.51 258.529 212.281 258.529Z" fill="#FB9071"/>
<path fill-rule="evenodd" clip-rule="evenodd" d="M231.082 258.481C232.875 258.481 234.341 257.248 234.341 255.734C234.341 254.221 232.875 252.984 231.082 252.984C229.289 252.984 227.828 254.217 227.828 255.734C227.828 257.252 229.289 258.481 231.082 258.481Z" fill="#FB9071"/>
<path fill-rule="evenodd" clip-rule="evenodd" d="M296.211 146.902C302.34 150.986 306.554 154.571 307.276 162.422C308.026 170.526 304.431 175.191 312.853 181.459C319.779 186.616 325.23 186.828 328.418 196.323C329.829 200.521 329.682 203.225 328.82 207.486C329.371 203.26 329.351 200.61 327.678 196.601C323.513 186.58 316.259 186.875 309.939 180.678C304.626 175.477 305.933 171.588 306.064 165.129C306.252 155.924 303.144 152.249 296.226 146.898L296.211 146.902Z" fill="#6D5345"/>
<path fill-rule="evenodd" clip-rule="evenodd" d="M242.409 149.086C239.103 153.769 234.66 159.775 233.184 165.303C232.059 169.49 231.352 177.567 232.421 181.754L232.725 182.856C230.731 178.311 230.446 174.698 231.024 169.833C232.185 159.947 235.838 156.062 242.409 149.086Z" fill="#6D5345"/>
<path fill-rule="evenodd" clip-rule="evenodd" d="M272.936 122.297C276.024 126.276 278.198 128.46 283.115 130.047C284.743 130.569 286.509 131.33 288.179 131.92C284.597 131.678 282.845 131.701 279.518 130.034C275.445 127.992 274.569 126.304 272.943 122.299L272.936 122.297Z" fill="#6D5345"/>
<path fill-rule="evenodd" clip-rule="evenodd" d="M294.48 129.227C296.343 140.948 298.205 141.079 307.608 147.354C316.482 153.282 316.132 157.199 315.428 166.913C314.905 174.148 316.447 174.957 322.2 179.155C330.885 185.504 336.029 189.32 336.001 201.197C335.982 209.67 332.404 214.351 327.644 220.668C331.999 214.278 335.354 209.478 334.985 201.219C334.467 189.792 329.874 186.381 321.426 180.21C316.027 176.263 313.69 174.888 314.056 167.908C314.584 157.847 315.968 154.934 306.965 148.282C297.775 141.487 295.808 141.163 294.49 129.227H294.48Z" fill="#423026"/>
<path fill-rule="evenodd" clip-rule="evenodd" d="M213.942 244.265C212.441 243.752 211.408 243.868 210.159 244.806C210.109 244.851 210.05 244.884 209.986 244.904C209.922 244.925 209.855 244.932 209.788 244.926C209.722 244.92 209.657 244.9 209.598 244.868C209.54 244.835 209.488 244.791 209.447 244.739C209.406 244.686 209.376 244.625 209.359 244.56C209.343 244.496 209.339 244.428 209.35 244.362C209.36 244.296 209.384 244.233 209.419 244.176C209.455 244.119 209.502 244.071 209.557 244.033C211.093 242.881 212.451 242.721 214.281 243.343C214.342 243.366 214.397 243.4 214.445 243.443C214.492 243.487 214.531 243.54 214.558 243.598C214.585 243.657 214.6 243.72 214.603 243.784C214.605 243.849 214.595 243.913 214.573 243.974C214.55 244.034 214.516 244.09 214.473 244.137C214.429 244.185 214.376 244.223 214.318 244.25C214.259 244.277 214.196 244.292 214.131 244.295C214.067 244.297 214.002 244.287 213.942 244.265Z" fill="#33261E"/>
<path fill-rule="evenodd" clip-rule="evenodd" d="M228.794 244.281C230.295 243.764 231.332 243.884 232.581 244.82C232.631 244.86 232.689 244.889 232.751 244.906C232.813 244.923 232.878 244.928 232.942 244.92C233.006 244.912 233.067 244.892 233.123 244.86C233.179 244.828 233.228 244.786 233.268 244.735C233.308 244.684 233.337 244.626 233.354 244.564C233.371 244.503 233.376 244.438 233.368 244.374C233.36 244.31 233.339 244.249 233.308 244.193C233.276 244.137 233.233 244.088 233.183 244.048C231.645 242.893 230.291 242.737 228.455 243.363C228.333 243.408 228.234 243.499 228.18 243.617C228.125 243.735 228.12 243.87 228.165 243.991C228.21 244.113 228.302 244.212 228.42 244.266C228.538 244.32 228.672 244.326 228.794 244.281Z" fill="#33261E"/>
<path fill-rule="evenodd" clip-rule="evenodd" d="M232.182 0.0430857L72.7363 91.9956L84.1611 111.768L232.233 26.3741L380.253 111.738L391.68 91.9693L232.206 0L232.182 0.0430857Z" fill="#F49C39"/>
</g>
<defs>
<clipPath id="clip0_1967_1622">
<rect width="450" height="343" fill="white"/>
</clipPath>
</defs>
</svg>
