<svg width="33" height="33" viewBox="0 0 33 33" fill="none" xmlns="http://www.w3.org/2000/svg">
<g clip-path="url(#clip0_1968_1739)">
<path d="M16.5 33C25.6127 33 33 25.6127 33 16.5C33 7.3873 25.6127 0 16.5 0C7.3873 0 0 7.3873 0 16.5C0 25.6127 7.3873 33 16.5 33Z" fill="#F49C39"/>
<path d="M14.9035 17.2408C15.299 17.6356 15.492 18.3002 15.492 19.2536V19.7737C15.492 20.3323 15.4727 20.7464 15.4437 21.0257C15.4051 21.305 15.299 21.6228 15.1158 21.9984C14.7685 22.6726 13.8907 23 12.4727 23C11.0643 23 10.1286 22.7689 9.67524 22.3066C9.22186 21.8443 9 20.9679 9 19.6677C9 19.0899 9.01929 18.6661 9.06752 18.3868C9.23151 16.3547 9.82958 14.6116 10.8714 13.1669C11.9132 11.7223 13.2347 11 14.8264 11C14.9904 11 15.135 11.1252 15.2605 11.366C15.3859 11.6067 15.4534 11.9246 15.4534 12.3002C15.4534 12.6758 15.4051 12.9839 15.299 13.2151C15.1929 13.4462 15.0772 13.5811 14.9518 13.61C14.8264 13.6485 14.7299 13.6677 14.6527 13.6774C14.5852 13.687 14.4598 13.7448 14.2862 13.8507C14.1125 13.9567 13.9582 14.1011 13.8135 14.2841C13.418 14.7464 13.1961 15.4976 13.1576 16.5377C13.9293 16.6148 14.508 16.8459 14.9035 17.2408ZM21.6367 16.5474C22.3987 16.6148 22.9871 16.8555 23.3923 17.26C23.7974 17.6645 24 18.5024 24 19.7737C24 21.1413 23.7588 22.008 23.2669 22.374C22.6881 22.7881 21.8006 23 20.6141 23C19.418 23 18.5981 22.7689 18.1447 22.3066C17.6913 21.8443 17.4695 20.9679 17.4695 19.6677C17.4695 19.0899 17.4887 18.6661 17.537 18.3868C17.701 16.3547 18.3087 14.6116 19.3601 13.1669C20.4116 11.7223 21.7428 11 23.3344 11C23.4984 11 23.6431 11.1252 23.7685 11.366C23.8939 11.6067 23.9614 11.9246 23.9614 12.3002C23.9614 12.6758 23.9132 12.9839 23.8071 13.2151C23.701 13.4462 23.5852 13.5811 23.4598 13.61C23.3344 13.6485 23.2379 13.6677 23.1608 13.6774C23.0932 13.687 22.9678 13.7448 22.7749 13.8507C22.5916 13.9567 22.4277 14.1011 22.2926 14.2841C21.9068 14.756 21.6945 15.5072 21.6367 16.5474Z" fill="white"/>
</g>
<defs>
<clipPath id="clip0_1968_1739">
<rect width="33" height="33" fill="white"/>
</clipPath>
</defs>
</svg>
